<?xml version="1.0" encoding="UTF-8"?> <svg xmlns="http://www.w3.org/2000/svg" width="45" height="45" viewBox="0 0 45 45" fill="none"><circle cx="22.5" cy="22.5" r="22.5" fill="#EFF5FF"></circle><path d="M22.8554 24.6897V24.5051C23.2543 24.4741 23.6084 24.2405 23.7903 23.8881C23.9721 23.5358 23.9558 23.1153 23.7469 22.7778C23.5381 22.4404 23.1668 22.2344 22.7666 22.2338H22.2341C21.9891 22.2338 21.7904 22.0375 21.7904 21.7953C21.7904 21.5531 21.9891 21.3568 22.2341 21.3568H23.5654C23.7615 21.3568 23.9204 21.1997 23.9204 21.0059C23.9204 20.8121 23.7615 20.6551 23.5654 20.6551H22.8554V20.4797C22.8554 20.2859 22.6965 20.1288 22.5004 20.1288C22.3043 20.1288 22.1454 20.2859 22.1454 20.4797V20.6643C21.7464 20.6952 21.3924 20.9289 21.2104 21.2812C21.0286 21.6336 21.045 22.054 21.2538 22.3916C21.4627 22.729 21.8339 22.935 22.2341 22.9355H22.7666C23.0117 22.9355 23.2104 23.1319 23.2104 23.3741C23.2104 23.6162 23.0117 23.8126 22.7666 23.8126H21.4353C21.2392 23.8126 21.0803 23.9697 21.0803 24.1635C21.0803 24.3572 21.2392 24.5143 21.4353 24.5143H22.1454V24.6897C22.1454 24.8835 22.3043 25.0406 22.5004 25.0406C22.6964 25.0406 22.8554 24.8835 22.8554 24.6897Z" fill="#FFCA00"></path><path d="M26.4051 22.5847C26.4051 21.5612 25.9937 20.5796 25.2613 19.8558C24.529 19.1321 23.5357 18.7255 22.5 18.7255C21.4644 18.7255 20.4711 19.1321 19.7387 19.8558C19.0064 20.5796 18.5949 21.5612 18.5949 22.5847C18.5949 23.6082 19.0064 24.5898 19.7387 25.3136C20.4711 26.0373 21.4644 26.4439 22.5 26.4439C23.5354 26.4428 24.528 26.0358 25.2601 25.3123C25.9922 24.5889 26.404 23.6079 26.4051 22.5847ZM19.3049 22.5847C19.3049 21.7472 19.6415 20.9441 20.2407 20.3519C20.8399 19.7597 21.6526 19.4271 22.5 19.4271C23.3475 19.4271 24.1601 19.7598 24.7594 20.3519C25.3586 20.9441 25.6951 21.7472 25.6951 22.5847C25.6951 23.4222 25.3586 24.2253 24.7594 24.8175C24.1601 25.4096 23.3475 25.7422 22.5 25.7422C21.6529 25.7413 20.8408 25.4084 20.2418 24.8163C19.6428 24.2244 19.3059 23.4219 19.3049 22.5847Z" fill="#FFCA00"></path><ellipse cx="15.4348" cy="15.4097" rx="1.21817" ry="1.20386" fill="#FFCA00"></ellipse><ellipse cx="29.5656" cy="15.4097" rx="1.21817" ry="1.20386" fill="#FFCA00"></ellipse><ellipse cx="29.5656" cy="29.6152" rx="1.21817" ry="1.20386" fill="#FFCA00"></ellipse><ellipse cx="15.4348" cy="29.6152" rx="1.21817" ry="1.20386" fill="#FFCA00"></ellipse><path d="M29.6004 27.8473C29.1913 27.8474 28.7948 27.9871 28.4779 28.2428C28.1611 28.4985 27.9433 28.8546 27.8615 29.2506H22.8552V27.8297C24.1399 27.7435 25.3496 27.2003 26.2601 26.3004C27.1706 25.4006 27.7204 24.2051 27.8076 22.9355H29.6004C29.6945 22.9355 29.7848 22.8985 29.8514 22.8327C29.918 22.767 29.9554 22.6777 29.9554 22.5847V17.2863C30.5352 17.1693 31.0179 16.7744 31.2426 16.2334C31.4672 15.6923 31.4043 15.0763 31.0747 14.5905C30.745 14.1048 30.1921 13.8133 29.6004 13.8133C29.0087 13.8133 28.4558 14.1048 28.1261 14.5905C27.7965 15.0763 27.7335 15.6923 27.9582 16.2334C28.1829 16.7744 28.6656 17.1693 29.2454 17.2863V22.2338H27.8076C27.7204 20.9642 27.1707 19.7688 26.2601 18.869C25.3496 17.9691 24.1399 17.4258 22.8552 17.3396V15.5679C22.8552 15.4749 22.8178 15.3856 22.7512 15.3199C22.6846 15.2541 22.5944 15.2171 22.5002 15.2171H17.1388C17.0204 14.6441 16.6209 14.167 16.0734 13.945C15.5259 13.723 14.9026 13.7852 14.4109 14.111C13.9195 14.4367 13.6245 14.9831 13.6245 15.5679C13.6245 16.1527 13.9195 16.6991 14.4109 17.0248C14.9026 17.3506 15.5259 17.4128 16.0734 17.1908C16.6209 16.9688 17.0204 16.4917 17.1388 15.9187H22.1452V17.3396C20.8605 17.4258 19.6508 17.9691 18.7403 18.8689C17.8298 19.7687 17.28 20.9642 17.1928 22.2338H15.4C15.2039 22.2338 15.045 22.3909 15.045 22.5847V27.883C14.4652 28.0001 13.9824 28.3949 13.7578 28.936C13.5331 29.477 13.5961 30.093 13.9257 30.5789C14.2554 31.0646 14.8082 31.356 15.4 31.356C15.9917 31.356 16.5446 31.0645 16.8742 30.5789C17.2039 30.093 17.2668 29.477 17.0422 28.936C16.8175 28.3949 16.3348 28.0001 15.755 27.883V22.9355H17.1928C17.28 24.2051 17.8297 25.4006 18.7403 26.3004C19.6508 27.2002 20.8605 27.7435 22.1452 27.8297V29.6014C22.1452 29.6945 22.1826 29.7837 22.2492 29.8495C22.3157 29.9153 22.406 29.9523 22.5002 29.9523H27.8615C27.9515 30.3882 28.2059 30.774 28.5729 31.0317C28.9399 31.2892 29.3922 31.3993 29.8384 31.3399C30.2846 31.2803 30.6911 31.0554 30.9758 30.7107C31.2605 30.3662 31.4021 29.9275 31.3719 29.4836C31.3415 29.0397 31.1418 28.6237 30.8129 28.3199C30.4841 28.0161 30.0505 27.8471 29.6004 27.8472L29.6004 27.8473ZM28.5354 15.5679C28.5354 15.2887 28.6475 15.0211 28.8472 14.8236C29.0471 14.6263 29.3179 14.5154 29.6004 14.5154C29.8829 14.5154 30.1537 14.6263 30.3535 14.8236C30.5532 15.0211 30.6654 15.2887 30.6654 15.5679C30.6654 15.8471 30.5532 16.1147 30.3535 16.3122C30.1537 16.5096 29.8829 16.6204 29.6004 16.6204C29.3179 16.6204 29.0471 16.5096 28.8472 16.3122C28.6475 16.1147 28.5354 15.8471 28.5354 15.5679ZM15.4 16.6204C15.1175 16.6204 14.8466 16.5096 14.6468 16.3122C14.4471 16.1147 14.3349 15.8471 14.3349 15.5679C14.3349 15.2887 14.4471 15.0211 14.6468 14.8236C14.8466 14.6263 15.1175 14.5154 15.4 14.5154C15.6824 14.5154 15.9533 14.6263 16.1531 14.8236C16.3528 15.0211 16.465 15.2887 16.465 15.5679C16.465 15.8471 16.3528 16.1147 16.1531 16.3122C15.9533 16.5096 15.6824 16.6204 15.4 16.6204ZM16.465 29.6015C16.465 29.8806 16.3528 30.1483 16.1531 30.3458C15.9533 30.5431 15.6824 30.654 15.3999 30.654C15.1175 30.654 14.8466 30.5431 14.6468 30.3458C14.4471 30.1483 14.3349 29.8806 14.3349 29.6015C14.3349 29.3223 14.4471 29.0546 14.6468 28.8572C14.8466 28.6598 15.1175 28.5489 15.3999 28.5489C15.6824 28.5489 15.9533 28.6598 16.1531 28.8572C16.3528 29.0546 16.465 29.3223 16.465 29.6015ZM17.885 22.5847C17.885 21.3751 18.3712 20.215 19.2367 19.3596C20.1023 18.5043 21.2762 18.0238 22.5002 18.0238C23.7241 18.0238 24.898 18.5043 25.7636 19.3596C26.6291 20.215 27.1153 21.3751 27.1153 22.5847C27.1153 23.7943 26.6291 24.9544 25.7636 25.8098C24.898 26.6651 23.7241 27.1456 22.5002 27.1456C21.2766 27.1441 20.1036 26.663 19.2384 25.8082C18.3733 24.9531 17.8866 23.7939 17.885 22.5847ZM29.6004 30.654C29.3179 30.654 29.0471 30.5431 28.8472 30.3458C28.6475 30.1483 28.5353 29.8806 28.5353 29.6015C28.5353 29.3223 28.6475 29.0546 28.8472 28.8572C29.0471 28.6598 29.3179 28.5489 29.6004 28.5489C29.8829 28.5489 30.1537 28.6598 30.3535 28.8572C30.5532 29.0546 30.6654 29.3223 30.6654 29.6015C30.6654 29.8806 30.5532 30.1483 30.3535 30.3458C30.1537 30.5431 29.8829 30.654 29.6004 30.654Z" fill="#2176FF" stroke="#2176FF" stroke-width="0.6"></path></svg> 