<?xml version="1.0" encoding="UTF-8"?> <svg xmlns="http://www.w3.org/2000/svg" width="46" height="46" viewBox="0 0 46 46" fill="none"><circle cx="22.9535" cy="22.9535" r="22.9535" fill="#EFF5FF"></circle><g clip-path="url(#clip0_422_681)"><path d="M31.52 15.2443V14.9952L31.2708 14.9943L11.3867 14.9275L11.1359 14.9267V15.1775V30.4582V30.7082H11.3859H31.2923H31.5423V30.4582V26.7159C31.5423 26.4003 31.2755 26.1318 30.959 26.1318H30.709V26.1909C30.5138 26.2868 30.3758 26.4894 30.3758 26.7164V29.5404H12.3024V16.0967L30.3534 16.1617V17.4496V19.2985C30.3534 19.6141 30.6203 19.8826 30.9367 19.8826C31.2531 19.8826 31.52 19.6141 31.52 19.2985V17.4273V15.5785V15.2443Z" fill="#2176FF" stroke="#2176FF" stroke-width="0.5"></path><path d="M14.6739 22.9507H26.2267V23.6189H14.6739V22.9507Z" fill="#FFCA00"></path><path d="M14.6739 21.1243H26.2267V21.7926H14.6739V21.1243Z" fill="#2176FF"></path><path d="M14.6739 24.7999H26.2267V25.4682H14.6739V24.7999Z" fill="#2176FF"></path><path d="M14.6739 19.2975H21.339V19.9657H14.6739V19.2975Z" fill="#FFCA00"></path><path d="M24.9383 27.9404H29.3373V28.6086H24.9383V27.9404Z" fill="#FFCA00"></path><path d="M28.3153 23.4629L28.4041 26.4478L31.359 25.9132L37.7352 17.8716L34.647 15.399L28.3153 23.4629ZM36.8019 17.9834L31.0032 25.3121L29.0481 25.6685L29.0036 23.686L34.7577 16.3572L36.8019 17.9834Z" fill="#FFCA00"></path><path d="M28.6761 23.7383L34.6007 16.2258L37.0402 18.0376L31.2899 25.6471L29.0246 26.0095L28.6761 23.7383Z" fill="#FFCA00"></path></g><defs><clipPath id="clip0_422_681"><rect width="29.5036" height="20.5839" fill="white" transform="translate(8.23355 12.3504)"></rect></clipPath></defs></svg> 