<?xml version="1.0" encoding="UTF-8"?> <svg xmlns="http://www.w3.org/2000/svg" width="47" height="47" viewBox="0 0 47 47" fill="none"><circle cx="23.4535" cy="23.4535" r="23.4535" fill="#F5F9FF"></circle><g clip-path="url(#clip0_422_663)"><path d="M29.2174 15.3797L29.9238 15.1518L30.6494 17.3602L29.9429 17.5881L29.2174 15.3797Z" fill="#FFCA00"></path><path d="M15.5656 29.5397C15.8643 29.0578 16.9047 28.2824 17.5998 28.971C18.4739 29.8371 18.3282 29.5484 18.1825 30.5588C18.0659 31.3671 17.6969 32.4352 17.4541 32.8682C17.3084 33.205 16.7257 33.792 16.143 33.4456C15.4146 33.0125 15.1232 33.3012 14.6862 33.4456C14.2492 33.5899 13.3751 33.1569 13.0837 32.0022C12.7924 30.8474 12.6467 29.2597 13.3751 28.971C14.1035 28.6824 14.3605 28.8267 14.6862 28.8267C14.9776 28.8267 15.2843 29.8066 15.4146 29.5484C15.6708 29.0407 15.5891 29.463 15.5656 29.5397Z" fill="#FFCA00"></path><path d="M21.2417 21.0324L20.3677 21.6113C20.3677 21.8887 20.0763 22.1086 20.0763 21.1767C20.0763 20.0118 21.6788 19.4478 22.4072 19.6143C22.9899 19.7474 23.4269 20.4464 23.5726 20.7792C23.2327 21.1675 22.5237 21.8443 22.4072 21.4449C22.2906 21.0455 21.5817 21.0878 21.2417 21.0324Z" fill="#FFCA00"></path><path d="M27.3602 33.1569L27.2146 22.0427L28.0886 21.321L29.3997 22.1871L29.9824 21.754C30.031 24.737 30.099 31.0206 29.9824 32.2908C29.8659 33.561 28.1857 33.3974 27.3602 33.1569Z" fill="#FFCA00"></path><path d="M28.1287 17.9564L28.8352 17.7285L29.561 19.9369L28.8545 20.1648L28.1287 17.9564Z" fill="#FFCA00"></path><path d="M15.602 19.0299C15.5236 19.5924 15.6892 20.1612 16.0581 20.5957L16.5946 21.2623V27.4122H17.3375V21.8432L17.8744 22.1977C17.9992 22.2802 18.1618 22.2802 18.2866 22.1977L19.195 21.5969L20.1033 22.1969C20.2282 22.2794 20.3907 22.2794 20.5156 22.1969L21.4239 21.5969L22.3322 22.1969C22.4571 22.2794 22.6196 22.2794 22.7445 22.1969L23.6528 21.5969L24.5611 22.1969C24.686 22.2794 24.8485 22.2794 24.9734 22.1969L25.8817 21.5969L26.6247 22.0876V33.3016H18.4521V34.0377H28.8536C29.3459 34.0371 29.8181 33.843 30.1663 33.4981C30.5144 33.1531 30.7103 32.6853 30.711 32.1974V21.1554C30.71 21.0744 30.6819 20.9962 30.631 20.9328L32.7778 15.27C33.0667 14.5094 32.961 13.6568 32.4947 12.988C32.0521 12.3393 31.3123 11.9515 30.5219 11.9538C30.0298 11.9584 29.5507 12.1108 29.1477 12.3908C28.7449 12.6708 28.4373 13.0653 28.2655 13.5222L27.683 15.0585L26.9961 14.3779V13.058C26.9961 12.9604 26.957 12.8667 26.8873 12.7977C26.8177 12.7287 26.7231 12.6899 26.6246 12.6899H22.5384C22.3332 12.6899 22.1669 12.8547 22.1669 13.058V13.6896C21.9636 13.5069 21.7014 13.4018 21.4271 13.3924C21.1528 13.3832 20.8841 13.4706 20.6687 13.6392V13.058C20.6687 12.6683 20.4589 12.3081 20.1181 12.1132C19.7775 11.9183 19.3577 11.9183 19.0171 12.1132C18.6764 12.3081 18.4665 12.6683 18.4665 13.058V13.6395C18.2633 13.4726 18.0073 13.3814 17.7433 13.3819C17.4366 13.3812 17.1427 13.5038 16.929 13.7217C16.7169 13.9381 16.5978 14.2276 16.5966 14.5291C16.5955 14.8308 16.7124 15.1211 16.9227 15.3394L17.2684 15.6931V15.693C17.1426 15.7502 17.0283 15.8297 16.9311 15.9274L16.929 15.9289L16.9253 15.9325C16.8388 16.0208 16.7673 16.1222 16.7135 16.2329L16.29 15.4582L15.6366 15.8085L16.5973 17.5654C16.5542 17.5897 16.511 17.6132 16.4702 17.6408C16.455 17.6511 16.4417 17.6628 16.4268 17.6731L14.9891 16.3608L14.4853 16.9022L15.9134 18.2067V18.2065C15.7494 18.4551 15.6431 18.7365 15.6021 19.0306L15.602 19.0299ZM23.4464 20.8485L22.5381 21.4493L21.6297 20.8493C21.5049 20.7669 21.3424 20.7669 21.2175 20.8493L20.3178 21.4438C20.3157 21.407 20.3092 21.375 20.3092 21.3397V21.3395C20.3077 20.813 20.5596 20.3173 20.9873 20.0049C21.4152 19.6926 21.9678 19.601 22.4749 19.7584C22.982 19.9159 23.383 20.3035 23.5545 20.8019C23.5162 20.8117 23.4797 20.8275 23.4464 20.8485L23.4464 20.8485ZM24.3955 21.2035L24.3883 21.1987C24.3437 20.4249 23.923 19.7208 23.26 19.3097C22.597 18.8988 21.7739 18.8319 21.0522 19.1305V16.738H24.3955L24.3955 21.2035ZM29.9677 32.1966C29.9677 32.4894 29.8503 32.7704 29.6413 32.9774C29.4323 33.1844 29.1487 33.3008 28.8533 33.3008H27.3673V22.0876L28.1103 21.5963L29.0186 22.1962C29.1435 22.2787 29.306 22.2787 29.4309 22.1962L29.9677 21.8426L29.9677 32.1966ZM28.9605 13.7799C29.0789 13.4631 29.2914 13.1892 29.5701 12.9943C29.8487 12.7996 30.1806 12.6931 30.5215 12.689C31.0675 12.688 31.5781 12.9562 31.8837 13.4046C32.2116 13.8752 32.2857 14.4753 32.0821 15.0105L29.7819 21.0808L29.2247 21.4489L28.3163 20.8489C28.1915 20.7665 28.0289 20.7665 27.9041 20.8489L26.9957 21.4489L26.242 20.9508L28.9605 13.7799ZM27.3958 15.8141L25.4245 21.0137L25.1384 21.2028V16.5219L26.6243 15.0496L27.3958 15.8141ZM22.9096 13.4251H26.253V14.1613H22.9096V13.4251ZM22.6919 14.8974H25.7276L24.6131 16.0016H21.5774L22.6919 14.8974ZM17.4589 14.237C17.5335 14.1609 17.636 14.1179 17.7432 14.1179C17.8503 14.1179 17.9528 14.1609 18.0274 14.237L18.5727 14.7891C18.6787 14.8962 18.8395 14.9289 18.9795 14.8718C19.1193 14.8147 19.2103 14.6792 19.2093 14.5293V13.0571C19.2049 12.9601 19.2407 12.8656 19.3084 12.7955C19.376 12.7253 19.4695 12.6857 19.5676 12.6857C19.6654 12.6857 19.7591 12.7253 19.8268 12.7955C19.8943 12.8656 19.9301 12.9601 19.9256 13.0571V14.5293C19.9258 14.6787 20.017 14.8131 20.1566 14.8696C20.2961 14.9261 20.4563 14.8934 20.5619 14.787L21.1092 14.2349C21.2658 14.0821 21.5172 14.0821 21.6739 14.2349C21.8353 14.3985 21.8353 14.6601 21.6739 14.8238L20.5796 15.928L20.5907 15.939L20.4182 16.1099C20.3883 16.1403 20.3641 16.1759 20.3465 16.2147C20.3414 16.226 20.3384 16.2375 20.3343 16.2494C20.3232 16.2806 20.3164 16.3133 20.3142 16.3465C20.3142 16.3545 20.3097 16.3613 20.3097 16.3693V19.616C20.2252 19.6961 20.1467 19.7822 20.0751 19.8737L19.3732 18.394C19.1144 17.8833 18.646 17.5079 18.088 17.3634C17.958 17.3302 17.825 17.3102 17.6908 17.3038L17.5958 17.1934C17.5215 17.1091 17.4655 17.0432 17.4565 17.034C17.3603 16.9344 17.3188 16.7949 17.3451 16.6597C17.3588 16.5829 17.3945 16.5116 17.4479 16.4543L17.4545 16.448L17.4638 16.4382H17.464C17.5985 16.3075 17.8069 16.2882 17.9635 16.3917C18.1212 16.4962 18.3328 16.4663 18.4545 16.3223C18.5764 16.1786 18.5694 15.9668 18.4383 15.8312L17.4565 14.8271C17.297 14.6618 17.2981 14.401 17.459 14.237L17.4589 14.237ZM16.3382 19.13C16.3866 18.7732 16.5861 18.4537 16.8866 18.2514C17.1846 18.0516 17.5549 17.9883 17.9032 18.0777C18.2516 18.1672 18.5443 18.4007 18.7069 18.7188L19.6538 20.7171H19.6537C19.6303 20.8032 19.6119 20.8906 19.5984 20.9788L19.4027 20.8493L19.4026 20.8492C19.2777 20.7667 19.115 20.7667 18.9903 20.8492L18.0805 21.4488L17.2566 20.9041L17.1772 20.805L18.1349 20.0715L17.6802 19.4891L16.7143 20.2294L16.6317 20.1273C16.3954 19.8513 16.2886 19.4886 16.3382 19.1299L16.3382 19.13Z" fill="#2176FF" stroke="#2176FF" stroke-width="0.5"></path><path d="M12.9299 33.1194C13.0684 33.396 13.2822 33.6286 13.5472 33.7908C13.8122 33.9532 14.1178 34.0386 14.4293 34.0375C14.6895 34.037 14.946 33.977 15.1789 33.8623L15.4802 33.7128L15.7818 33.8621V33.8623C16.0147 33.9772 16.2711 34.0371 16.5311 34.0375C16.8425 34.0386 17.1482 33.9532 17.4132 33.7908C17.6782 33.6287 17.8919 33.396 18.0304 33.1194L18.1601 32.8618H18.1599C18.5949 31.9972 18.8222 31.0443 18.8235 30.0781C18.8228 29.5666 18.6175 29.076 18.2523 28.7143C17.8873 28.3525 17.3921 28.149 16.8759 28.1484C16.5133 28.1494 16.1585 28.2514 15.8516 28.4429V28.1484C15.8516 27.758 15.6951 27.3835 15.4165 27.1073C15.1377 26.8313 14.7597 26.6761 14.3657 26.6761V27.4123C14.5627 27.4123 14.7518 27.4898 14.8911 27.6279C15.0304 27.7659 15.1087 27.9532 15.1087 28.1484V28.4429C14.8019 28.2514 14.447 28.1494 14.0845 28.1484C13.5682 28.1491 13.073 28.3525 12.708 28.7143C12.3428 29.076 12.1375 29.5666 12.1368 30.0781C12.1382 31.0446 12.3652 31.9977 12.8004 32.8626L12.9299 33.1194ZM14.0845 28.8844C14.4042 28.8836 14.711 29.0094 14.9364 29.234L15.2177 29.5127H15.2175C15.3626 29.6563 15.5978 29.6563 15.7429 29.5127L16.0241 29.234H16.024C16.25 29.0102 16.5563 28.8845 16.8759 28.8845C17.1953 28.8845 17.5017 29.0102 17.7276 29.234C17.9535 29.4578 18.0805 29.7615 18.0805 30.0779C18.0795 30.9302 17.8793 31.7707 17.4954 32.5333L17.3657 32.7909C17.2886 32.9447 17.1694 33.0741 17.022 33.1641C16.8744 33.2543 16.7044 33.3018 16.5311 33.3011C16.3863 33.301 16.2435 33.2674 16.1138 33.2035L15.6462 32.9717C15.5417 32.9199 15.4186 32.9199 15.3142 32.9717L14.8468 33.2035C14.717 33.2674 14.5742 33.3008 14.4292 33.3011C14.2558 33.3016 14.0856 33.254 13.9382 33.1636C13.7906 33.0734 13.6717 32.9439 13.5946 32.79L13.4649 32.5323C13.0811 31.7699 12.881 30.9299 12.8798 30.0779C12.8801 29.7615 13.0072 29.4581 13.2331 29.2343C13.4589 29.0105 13.7651 28.8847 14.0845 28.8843L14.0845 28.8844Z" fill="#2176FF"></path></g><defs><clipPath id="clip0_422_663"><rect width="22.4345" height="24.5377" fill="white" transform="translate(11.9183 11.2173)"></rect></clipPath></defs></svg> 