<?xml version="1.0" encoding="UTF-8"?> <svg xmlns="http://www.w3.org/2000/svg" width="45" height="45" viewBox="0 0 45 45" fill="none"><circle cx="22.4535" cy="22.4535" r="22.4535" fill="#F5F9FF"></circle><path d="M12 23.4714C12.0462 23.7489 12.0462 23.9802 12.0923 24.2577C12.2308 26.6167 12.4154 28.9295 12.5538 31.2885C12.5538 31.6123 12.7846 31.8436 13.1077 31.8899C13.6615 31.9361 14.1692 31.9824 14.7231 31.9824C16.9385 32.1211 19.2 32.2599 21.4154 32.3987C21.4615 32.3987 21.5077 32.3987 21.6 32.3987C21.7846 32.3987 21.9231 32.2599 21.9231 32.0749C21.9231 31.8899 21.8308 31.7974 21.6462 31.7511C21.2769 31.7048 20.8615 31.7048 20.4923 31.6586C18.5538 31.5661 16.6154 31.4273 14.6769 31.3348C14.6308 31.3348 14.5385 31.3348 14.4923 31.2885C14.8154 31.1498 15.1385 31.0573 15.4154 30.9185C17.0308 30.2709 18.6462 29.6696 20.2615 29.022C20.4 28.9758 20.5385 28.9758 20.6769 29.022C23.8154 30.0859 26.9538 31.1035 30.0462 32.1674C30.0923 32.1674 30.1385 32.2137 30.1846 32.2599C29.8615 32.2599 29.4923 32.2137 29.1692 32.2137C27.4615 32.1211 25.7538 32.0286 24.0462 31.8899C23.7231 31.8899 23.4462 31.8436 23.1231 31.8436C22.8923 31.8436 22.7538 31.9361 22.7538 32.1211C22.7538 32.3062 22.8923 32.4449 23.0769 32.4449C24.9231 32.5374 26.7692 32.6762 28.6154 32.7687C29.8615 32.8612 31.1077 32.9537 32.3538 33C32.4 33 32.4462 33 32.5385 33C32.8615 33 33 32.8612 33 32.5837C32.9538 32.0749 32.9538 31.5198 32.9077 31.011C32.8154 29.5308 32.7231 28.0044 32.6308 26.5242C32.5385 24.7665 32.4 23.0551 32.3077 21.2974C32.2154 19.8172 32.1231 18.337 32.0308 16.9031C31.9385 15.7004 31.8923 14.4978 31.8 13.2489C31.7538 12.7863 31.5692 12.6013 31.1538 12.5551C30.8769 12.5551 30.6 12.5088 30.3692 12.5088C30.1385 12.5088 30 12.6013 30 12.7863C30 12.9714 30.0923 13.1101 30.3231 13.1101C30.5538 13.1101 30.7846 13.1564 31.0615 13.1564C30.1846 15.4692 29.3077 17.7357 28.3846 20.0022C26.2615 18.7996 24.1846 17.5969 22.0615 16.348C22.3846 15.0991 22.7077 13.8965 22.9846 12.6476C23.5385 12.6938 24.0923 12.7401 24.6462 12.7401C26.0308 12.8326 27.3692 12.9251 28.7538 13.0176C28.9846 13.0176 29.1231 12.9251 29.1692 12.7401C29.1692 12.6013 29.0308 12.4163 28.8462 12.4163C27.9692 12.37 27.1385 12.3238 26.2615 12.2313C25.3846 12.185 24.4615 12.1388 23.5846 12.0463C23.5385 12.0463 23.4923 12.0463 23.4462 12C23.2154 12 23.0308 12 22.8 12C22.6154 12.0463 22.4308 12.1388 22.2923 12.185C20.9538 12.8326 19.6615 13.4339 18.3692 13.989C18.2769 14.0352 18.1846 14.0815 18.0923 14.174C16.8462 15.4229 15.6 16.6718 14.3538 17.8744C14.2615 17.967 14.2154 18.0595 14.1692 18.152C13.8923 18.707 13.6615 19.2159 13.4308 19.7709C13.3385 20.0022 13.3385 20.1872 13.5231 20.2797C13.7077 20.3722 13.8462 20.2797 13.9846 20.0485C14.2154 19.5396 14.4462 19.0308 14.6769 18.5683C14.7231 18.4758 14.8154 18.337 14.9077 18.2907C16.1077 17.0881 17.3077 15.9317 18.5077 14.7291C18.5538 14.6828 18.6462 14.5903 18.7385 14.5441C19.8923 14.0352 21.0462 13.4802 22.2 12.9714C22.2462 12.9714 22.2923 12.9251 22.3846 12.9251C22.1077 14.0815 21.8308 15.1916 21.5077 16.3018C21.5077 16.348 21.4615 16.4405 21.3692 16.4868C19.7538 18.152 18.0923 19.7709 16.4769 21.3899C16.4308 21.4361 16.3385 21.4824 16.2462 21.5286C15.6923 21.6674 15.0923 21.8062 14.5385 21.9912C14.0308 22.13 13.5231 22.2687 12.9231 22.4075C13.0615 22.0837 13.2 21.8524 13.3385 21.5749C13.4308 21.3436 13.3846 21.2048 13.2462 21.1123C13.0615 21.0198 12.9231 21.1123 12.8308 21.3436C12.6 21.8987 12.3692 22.4075 12.1385 22.9626C12 23.0551 12 23.2863 12 23.4714ZM20.4462 28.0969C19.2462 26.0154 18.0462 23.9339 16.8462 21.8524C16.8923 21.8062 16.8923 21.8062 16.9385 21.7599C18.5077 20.1872 20.0769 18.6145 21.6462 17.0419C21.7385 16.9493 21.8308 16.9493 21.9231 17.0419C23.9077 18.1982 25.8923 19.3084 27.8769 20.4648C27.9231 20.511 27.9692 20.511 28.0154 20.5573C25.4769 23.0551 22.9846 25.5529 20.4462 28.0969ZM21.0462 28.5132C23.5385 26.0154 25.9846 23.5639 28.4769 21.1123C29.7231 24.8128 30.9692 28.5132 32.2154 32.2599C28.4308 30.9648 24.7385 29.7159 21.0462 28.5132ZM19.9846 28.467C17.7231 29.3458 15.4615 30.2247 13.1538 31.1035C13.1538 30.9185 13.1077 30.7797 13.1077 30.641C13.0154 29.2533 12.9231 27.9119 12.8308 26.5242C12.7385 25.4141 12.6923 24.3502 12.6 23.2401C12.6 23.1013 12.6462 23.0551 12.7846 23.0088C13.5692 22.8238 14.3538 22.5925 15.1385 22.4075C15.5538 22.315 15.9231 22.2225 16.3385 22.13C17.5385 24.2577 18.7385 26.3392 19.9846 28.467ZM31.2 14.4515C31.2462 14.4515 31.2462 14.4515 31.2 14.4515C31.5692 19.7247 31.8923 24.9515 32.2154 30.2247C32.1692 30.1784 32.1231 30.1322 32.1231 30.0859C31.0615 26.9405 30 23.7489 28.9846 20.6035C28.9385 20.511 28.9385 20.3722 28.9846 20.2797C29.6769 18.4295 30.4154 16.533 31.1538 14.6828C31.1538 14.5903 31.2 14.5441 31.2 14.4515Z" fill="#2176FF" stroke="#2176FF" stroke-width="0.8"></path><path d="M20.5 26L18.5 22L22 18.5L26 21L20.5 26Z" fill="#FFCA00" stroke="#FFCA00" stroke-width="0.8" stroke-linecap="round"></path></svg> 