<?xml version="1.0" encoding="UTF-8"?> <svg xmlns="http://www.w3.org/2000/svg" width="45" height="45" viewBox="0 0 45 45" fill="none"><circle cx="22.4535" cy="22.4535" r="22.4535" fill="#F5F9FF"></circle><path d="M22.6491 15.8949L22.6564 15.9127L22.6643 15.9302C23.177 17.0605 23.8935 18.0022 24.6289 18.8395C24.9961 19.2576 25.3766 19.6591 25.7412 20.0433L25.7589 20.0619C26.1214 20.444 26.4675 20.8087 26.7954 21.1802C28.1081 22.6673 29.0121 24.1309 28.8269 26.3486L28.8269 26.3492C28.593 29.1683 27.4975 30.8291 26.2751 31.8115C25.497 32.4368 24.6335 32.8138 23.8398 33.0209L23.8733 32.9874C24.0703 32.8543 24.2691 32.6514 24.3758 32.3428L24.1107 32.1769L24.4033 32.2456C24.4456 32.0657 24.451 31.8791 24.4193 31.6971L24.4192 31.6971C24.39 31.5291 24.3296 31.3681 24.2413 31.2225C24.0494 30.8877 23.7523 30.6707 23.5234 30.534C23.2683 30.3816 22.9755 30.2579 22.6836 30.1551C22.0979 29.9491 21.3919 29.7853 20.7096 29.656C19.3375 29.3961 17.9195 29.25 17.4334 29.2026L15.7192 29.0354C15.5265 28.5548 15.3887 28.0499 15.3109 27.53L15.3062 27.4982L15.2994 27.4668C14.6701 24.5522 15.7313 20.6858 17.5017 17.2671C18.3746 15.5814 19.3918 14.0604 20.3912 12.8859C20.8294 12.3709 21.2489 11.9405 21.6372 11.596C21.7479 13.0691 22.0882 14.5198 22.6491 15.8949Z" stroke="#2176FF" stroke-width="2"></path><path d="M19.7577 16.5432C20.1709 15.9249 20.5801 15.4069 20.962 15.0021C21.3095 16.3518 21.8885 17.6367 22.6768 18.8007L22.8326 19.0307L22.8854 19.0451C23.7892 20.1859 24.8212 20.9288 25.6898 21.554C25.9858 21.7671 26.2628 21.9665 26.5093 22.1634C27.0356 22.5837 27.4708 23.0149 27.8089 23.578C28.1419 24.1327 28.4043 24.8554 28.5291 25.8864C28.5566 28.3735 27.8958 29.9586 27.0623 30.9714C26.2179 31.9974 25.1373 32.5074 24.2231 32.7334L24.2124 32.7361L24.2018 32.739C22.5935 33.1872 21.1198 33.0628 19.9271 32.4889C18.7382 31.9168 17.7719 30.8714 17.216 29.3692L17.208 29.3474L17.1986 29.3261C16.1325 26.9154 16.5696 23.6024 17.7184 20.5577C18.2852 19.0555 19.009 17.6635 19.7577 16.5432Z" stroke="#FFCA00" stroke-width="1.5"></path></svg> 