<?xml version="1.0" encoding="UTF-8"?> <svg xmlns="http://www.w3.org/2000/svg" width="45" height="45" viewBox="0 0 45 45" fill="none"><circle cx="22.4535" cy="22.4535" r="22.4535" fill="#EFF5FF"></circle><g clip-path="url(#clip0_1106_778)"><path d="M21.7425 35C20.3445 34.4075 19.0937 33.5187 17.6957 32.704C18.3579 32.4077 18.8729 32.1114 19.388 31.9633C19.4616 31.9633 19.6823 32.0374 19.7559 32.1114C20.4181 32.4818 21.0803 32.8521 21.7425 33.2965C21.9632 33.4446 22.1104 33.4446 22.3311 33.2965C25.2743 31.593 28.1438 29.8895 31.087 28.26C31.3077 28.1119 31.4549 27.9638 31.4549 27.6675V17.4465C31.4549 17.1503 31.3813 17.0021 31.087 16.854C28.2174 15.2246 25.2743 13.447 22.3311 11.8176C22.1104 11.6694 21.8897 11.6694 21.6689 11.8176C18.7994 13.447 15.9298 15.1505 12.9867 16.854C12.6923 17.0021 12.6188 17.2243 12.6188 17.5206V27.5194C12.6188 27.8157 12.6923 28.0378 12.9867 28.186C13.7224 28.5563 14.3846 29.0007 15.1204 29.371C15.3412 29.5192 15.6355 29.5932 15.9298 29.6673C16.8127 29.8895 17.4749 29.297 17.4749 28.4082V23.8161V18.4094C17.4749 17.8168 17.4749 17.8168 18.0636 17.8168H18.5786C19.0937 17.8168 19.0937 17.8168 19.0937 18.3353V21.8904V28.4082C19.0937 28.7785 19.0937 29.0748 19.0201 29.4451C18.7994 30.5561 17.99 31.2227 16.8863 31.3708C15.9298 31.5189 15.0469 31.2227 14.2375 30.7783C13.5017 30.4079 12.7659 29.9635 12.1037 29.5192C11.3679 29.1488 11.0736 28.4822 11.0736 27.6675V17.2984C11.0736 16.4837 11.4415 15.8911 12.1037 15.4468C15.0469 13.7432 18.0636 11.9657 20.9331 10.2622C21.6689 9.89185 22.4047 9.89185 23.0669 10.2622C26.0101 11.9657 29.0268 13.7432 31.8964 15.4468C32.6321 15.8171 32.9265 16.4837 32.9265 17.2984V27.5935C32.9265 28.4082 32.5586 29.0748 31.8228 29.4451C28.806 31.1486 25.8629 32.9262 22.8462 34.6297C22.6254 34.7778 22.4047 34.8519 22.184 34.9259C22.1104 35 21.8897 35 21.7425 35Z" fill="#2176FF" stroke="#2176FF" stroke-width="0.4"></path><path d="M24.4649 27.7416C23.6555 27.7416 22.699 27.5935 21.8896 27.2232C20.7124 26.7047 20.1237 25.89 20.0502 24.6309C20.0502 24.2605 20.1237 24.1124 20.4916 24.1124H21.301C21.5217 24.1124 21.6689 24.1865 21.6689 24.4827C21.8161 25.4456 22.4047 25.89 23.2876 26.0381C24.3177 26.2603 25.3478 26.2603 26.3779 26.0381C26.893 25.89 27.3345 25.6678 27.5552 25.0753C27.7023 24.4827 27.5552 24.1124 26.9666 23.8902C26.3779 23.668 25.7157 23.594 25.1271 23.5199C24.1706 23.3718 23.2141 23.2977 22.3311 23.0755C21.0803 22.7792 20.4916 22.0386 20.4181 20.9276C20.3445 19.6685 20.786 18.7056 21.9632 18.2613C22.5518 17.965 23.2876 17.8909 23.9498 17.7428C25.0535 17.5947 26.0836 17.7428 27.1137 18.1131C28.291 18.5575 28.8796 19.5204 29.0268 20.7795C29.0268 21.0017 28.9532 21.1498 28.6589 21.1498C28.291 21.1498 27.9967 21.1498 27.7023 21.1498C27.5552 21.1498 27.3345 21.0017 27.3345 20.8535C27.1137 19.8166 26.3779 19.3722 25.4214 19.2982C24.6856 19.2982 23.9498 19.2982 23.2876 19.3722C22.6254 19.4463 22.3311 19.8907 22.2575 20.3351C22.2575 20.8535 22.3311 21.0757 22.8462 21.2239C23.5084 21.4461 24.1706 21.5201 24.9064 21.6683C25.8629 21.8905 26.8194 21.9645 27.7023 22.2608C28.6589 22.483 29.3211 23.1496 29.4682 24.1865C29.6154 25.3715 29.2475 26.3344 28.2174 27.001C27.3345 27.5935 26.3044 27.7416 25.3478 27.7416C24.9799 27.7416 24.7592 27.7416 24.4649 27.7416Z" fill="#2176FF"></path><line x1="22.6799" y1="13.8057" x2="29.6732" y2="17.6909" stroke="#FFCA00" stroke-linecap="round"></line><path d="M16.5 18.5V28" stroke="#FFCA00" stroke-width="0.8" stroke-linecap="round"></path></g><defs><clipPath id="clip0_1106_778"><rect width="22" height="27" fill="white" transform="translate(11 9)"></rect></clipPath></defs></svg> 