<?xml version="1.0" encoding="UTF-8"?> <svg xmlns="http://www.w3.org/2000/svg" width="48" height="48" viewBox="0 0 48 48" fill="none"><g clip-path="url(#clip0_11760_1851)"><path d="M24.8226 7.71197C24.8226 8.63797 24.8226 9.57779 24.8226 10.5038C24.8226 11.2087 24.5324 11.5818 24.0072 11.5956C23.4682 11.6095 23.1641 11.2225 23.1641 10.5314C23.1641 8.65179 23.1641 6.77215 23.1641 4.89251C23.1641 4.60227 23.095 4.36731 22.9292 4.13236C21.5194 2.08686 18.8796 1.1885 16.5024 1.93483C14.0976 2.68116 12.4391 4.89251 12.4253 7.38027C12.4115 8.44448 12.9919 9.34284 13.9456 9.74364C14.8992 10.1445 15.9772 9.92332 16.6959 9.16317C17.4146 8.41684 17.5805 7.36645 17.1244 6.38516C16.9585 6.03964 16.848 5.70794 17.0691 5.36242C17.4423 4.78194 18.1886 4.87869 18.5618 5.54209C19.6398 7.51848 18.8382 10.0615 16.8065 11.1257C14.3878 12.3973 11.3611 10.9737 10.8635 8.29245C10.7668 7.76726 10.5456 7.61523 10.0619 7.54612C6.34408 6.99328 3.16527 9.84039 3.33112 13.572C3.46933 16.6126 6.13676 19.1142 9.16354 19.0313C10.2277 19.0036 10.9879 18.4646 11.4025 17.4834C11.8033 16.5159 11.6098 15.6037 10.8912 14.8574C10.1586 14.0834 9.24646 13.8899 8.23754 14.2493C8.11315 14.2907 7.98876 14.3598 7.86437 14.4151C7.40828 14.5948 6.95219 14.4428 6.77252 14.0419C6.57903 13.6411 6.73106 13.1712 7.15951 12.9501C8.41721 12.2729 9.70255 12.2729 10.9741 12.8948C12.6879 13.7379 13.5724 15.659 13.144 17.5386C12.7432 19.3492 11.0708 20.7036 9.19118 20.7174C7.07658 20.7313 5.25222 19.9711 3.78721 18.437C3.49697 18.1329 3.35876 18.202 3.09616 18.4232C1.81082 19.5565 1.34091 21.3394 1.92138 22.9426C2.50186 24.5458 4.00834 25.6515 5.69449 25.6791C7.31154 25.7068 8.92858 25.6791 10.5595 25.693C11.2229 25.693 11.596 25.9832 11.6098 26.4946C11.6237 27.0336 11.2367 27.3377 10.5456 27.3377C8.99769 27.3377 7.44975 27.3515 5.88798 27.3377C3.33112 27.3238 1.17506 25.8035 0.345802 23.454C-0.469631 21.1321 0.249056 18.6167 2.23927 17.0134C2.50186 16.7923 2.48804 16.6541 2.36365 16.3777C1.18888 13.6411 1.43765 11.029 3.27583 8.69326C5.08637 6.3437 7.57414 5.45916 10.5042 5.9429C10.8635 5.99818 10.9188 5.92907 11.0017 5.61119C11.7895 2.84701 13.5724 0.981191 16.3504 0.262504C19.1561 -0.456183 21.63 0.303967 23.6478 2.40474C23.9104 2.68116 24.021 2.73645 24.3251 2.41857C26.3429 0.317788 28.803 -0.456183 31.6225 0.262504C34.4143 0.96737 36.1972 2.81937 36.9988 5.59737C37.0956 5.9429 37.1647 6.012 37.5379 5.9429C42.3199 5.09982 46.5076 8.76236 46.3418 13.6135C46.3141 14.5671 46.093 15.4931 45.6645 16.35C45.5125 16.6403 45.5402 16.8061 45.8166 17.0134C48.484 19.1971 48.7604 22.9702 46.4385 25.4857C45.3743 26.6328 44.0337 27.2686 42.4719 27.31C40.7719 27.3515 39.0582 27.3238 37.3582 27.3238C36.7915 27.3238 36.4322 26.9783 36.4322 26.4946C36.4322 26.0108 36.7915 25.6791 37.3582 25.6653C38.9891 25.6515 40.6337 25.6791 42.2646 25.6515C43.9646 25.6377 45.4572 24.5873 46.0654 23.0255C46.6873 21.4223 46.3003 19.7085 45.0703 18.5199C44.7385 18.202 44.5589 18.1053 44.1581 18.5061C42.4857 20.1646 40.4679 20.98 38.1045 20.5931C36.4184 20.3166 35.3403 19.2248 34.9257 17.5801C34.4973 15.9078 34.981 14.4566 36.3216 13.3647C37.6346 12.3005 39.1273 12.1347 40.6752 12.8257C41.2695 13.0883 41.4768 13.5444 41.2695 14.0143C41.0622 14.4704 40.5785 14.5948 39.998 14.3322C38.9614 13.8899 37.9387 14.0558 37.1785 14.8021C36.446 15.5208 36.2387 16.5712 36.6257 17.511C37.0403 18.5061 37.9525 19.0728 39.0858 19.0313C42.0296 18.9484 44.5036 16.5712 44.6833 13.6411C44.8629 10.6282 42.7622 8.00221 39.8183 7.5323C39.376 7.4632 38.9338 7.43555 38.4777 7.4632C37.4135 7.5323 37.3858 7.57376 37.0818 8.55505C36.5842 10.1721 35.5062 11.1948 33.82 11.4989C32.1892 11.7891 30.8071 11.2363 29.812 9.92332C28.8169 8.61033 28.7063 7.14531 29.3835 5.63884C29.5494 5.27949 29.7705 4.97543 30.2128 4.96161C30.89 4.93397 31.2355 5.58355 30.9038 6.30224C30.4063 7.39409 30.5583 8.43066 31.3599 9.20463C32.1339 9.93714 33.0322 10.1445 34.0273 9.72982C35.0086 9.32902 35.5476 8.55505 35.5753 7.49084C35.6444 4.98925 33.9582 2.7088 31.5258 1.92101C29.1071 1.14704 26.4258 2.08686 25.0161 4.17382C24.8779 4.36731 24.8226 4.56081 24.8226 4.79576C24.8364 5.77705 24.8226 6.74451 24.8226 7.71197Z" fill="#030303"></path><path d="M28.1396 32.852C28.1396 33.2113 28.1534 33.5707 28.1396 33.9438C28.1119 34.4276 27.7664 34.7593 27.3103 34.7593C26.8542 34.7593 26.5087 34.4276 26.4949 33.93C26.4811 33.2113 26.4811 32.4788 26.4949 31.7601C26.4949 31.5114 26.4258 31.4561 26.177 31.4423C24.8364 31.387 24.8364 31.387 24.8364 32.7414C24.8364 33.1146 24.8502 33.5016 24.8364 33.8747C24.8226 34.3999 24.477 34.7455 24.0071 34.7455C23.5372 34.7455 23.1917 34.3999 23.1779 33.8747C23.164 33.1699 23.164 32.465 23.1779 31.7601C23.1779 31.5252 23.1226 31.4423 22.86 31.4423C21.5055 31.387 21.5055 31.3732 21.5055 32.7414C21.5055 33.1146 21.5194 33.5016 21.5055 33.8747C21.4917 34.3999 21.16 34.7455 20.6901 34.7593C20.2202 34.7593 19.8747 34.4138 19.8608 33.8886C19.847 33.2666 19.8332 32.6447 19.8608 32.0227C19.8885 31.5667 19.7779 31.3732 19.2942 31.4423C18.8105 31.4975 18.3267 31.4146 17.8983 31.1658C16.917 30.6268 16.4885 29.7838 16.5577 28.6919C16.5853 28.2496 16.4885 28.0838 16.0048 28.1252C15.4105 28.1805 14.8024 28.1391 14.1943 28.1391C13.6 28.1391 13.2268 27.8074 13.2406 27.296C13.2545 26.8123 13.6138 26.4944 14.1805 26.4806C14.83 26.4667 15.4934 26.4667 16.143 26.4806C16.4333 26.4944 16.5577 26.4391 16.5577 26.0936C16.5577 24.8082 16.5715 24.8082 15.2861 24.8082C14.8853 24.8082 14.4983 24.822 14.0975 24.8082C13.5723 24.7944 13.2268 24.4489 13.2406 23.979C13.2406 23.5091 13.5862 23.1774 14.1252 23.1635C14.8162 23.1497 15.5073 23.1497 16.1983 23.1635C16.5024 23.1774 16.5577 23.0668 16.5577 22.7904C16.5715 21.505 16.5853 21.505 15.2999 21.505C14.8991 21.505 14.5122 21.5189 14.1114 21.505C13.5862 21.4912 13.2406 21.1457 13.2406 20.6758C13.2406 20.2059 13.5862 19.8603 14.1114 19.8603C14.8162 19.8465 15.5211 19.8465 16.2259 19.8603C16.4747 19.8603 16.5577 19.7912 16.5438 19.5425C16.53 19.2384 16.5162 18.9205 16.5715 18.6165C16.7926 17.3449 17.8154 16.5295 19.1974 16.5571C19.7365 16.571 19.9023 16.4189 19.847 15.8937C19.7917 15.3133 19.8332 14.719 19.8332 14.1385C19.847 13.5995 20.1649 13.254 20.6348 13.2401C21.1186 13.2263 21.4779 13.5857 21.4917 14.1385C21.5055 14.8295 21.5055 15.5206 21.4917 16.2116C21.4917 16.4742 21.5608 16.5571 21.8372 16.5571C23.164 16.5848 23.164 16.5986 23.164 15.2856C23.164 14.8848 23.1502 14.4978 23.164 14.097C23.1779 13.5857 23.5372 13.2263 24.0071 13.2401C24.4494 13.254 24.7949 13.5857 24.8087 14.0832C24.8226 14.7881 24.8226 15.4929 24.8087 16.1978C24.8087 16.4604 24.864 16.5433 25.1404 16.5571C26.4672 16.5848 26.4672 16.5986 26.4672 15.2856C26.4672 14.9125 26.4534 14.5255 26.4672 14.1523C26.4811 13.5995 26.8266 13.2401 27.3103 13.2401C27.7802 13.254 28.1119 13.5995 28.1119 14.1247C28.1257 14.6637 28.1119 15.1889 28.1119 15.7279C28.1119 16.5295 28.1119 16.5295 28.8997 16.5433C29.9916 16.571 30.7655 17.0685 31.2216 18.0636C31.4289 18.4921 31.4566 18.962 31.4151 19.4319C31.3875 19.7498 31.4704 19.888 31.8298 19.8603C32.4102 19.8327 33.0045 19.8465 33.585 19.8465C34.3452 19.8465 34.7183 20.1229 34.7321 20.662C34.746 21.201 34.3452 21.505 33.6126 21.505C33.0045 21.505 32.4102 21.5189 31.8021 21.505C31.5257 21.4912 31.4151 21.5465 31.4151 21.8644C31.4013 23.1774 31.3875 23.1774 32.7005 23.1774C33.0736 23.1774 33.4606 23.1635 33.8338 23.1774C34.359 23.1912 34.7183 23.5229 34.7183 23.979C34.7321 24.4627 34.3728 24.8082 33.8061 24.8221C33.1289 24.8359 32.4655 24.8359 31.7883 24.8221C31.5257 24.8221 31.4013 24.8497 31.4013 25.1676C31.3875 26.4806 31.3737 26.4806 32.6866 26.4806C33.0875 26.4806 33.4744 26.4667 33.8752 26.4806C34.3728 26.4944 34.7045 26.8399 34.7183 27.2822C34.7321 27.7521 34.3866 28.1114 33.8614 28.1252C33.1566 28.1391 32.4517 28.1391 31.7468 28.1252C31.4704 28.1114 31.4013 28.2082 31.4013 28.4708C31.4151 28.7748 31.4151 29.0927 31.3598 29.3968C31.1249 30.6545 30.116 31.4284 28.7615 31.4423C28.0981 31.4423 28.0981 31.4423 28.0981 32.1195C28.1396 32.3683 28.1396 32.617 28.1396 32.852ZM23.9933 18.2157C22.3901 18.2157 20.7868 18.2157 19.1836 18.2157C18.5064 18.2157 18.2023 18.5197 18.2023 19.1969C18.2023 22.4034 18.2023 25.596 18.2023 28.8025C18.2023 29.5073 18.5064 29.7976 19.2113 29.7976C22.3901 29.7976 25.5827 29.7976 28.7615 29.7976C29.4664 29.7976 29.7704 29.5073 29.7704 28.8025C29.7704 25.6237 29.7704 22.431 29.7704 19.2522C29.7704 18.5197 29.4802 18.2295 28.7339 18.2295C27.1583 18.2157 25.5827 18.2157 23.9933 18.2157Z" fill="#010101"></path><path d="M12.1493 34.7597C11.5273 34.7597 10.9054 34.7735 10.2835 34.7458C9.9794 34.732 9.89647 34.8426 9.92412 35.119C9.95176 35.4645 9.93794 35.8101 9.92412 36.1556C9.91029 36.8328 9.86883 37.3995 10.6566 37.8417C11.5964 38.3807 11.8038 39.6384 11.3891 40.6474C10.9745 41.6563 9.96558 42.2782 8.87373 42.1815C7.7957 42.0847 6.89734 41.2831 6.66238 40.1775C6.44125 39.1685 6.9388 38.0629 7.89244 37.5515C8.1965 37.3856 8.29325 37.2198 8.27943 36.8881C8.25179 35.9621 8.26561 35.0223 8.26561 34.0963C8.26561 33.3776 8.55585 33.0873 9.26071 33.0873C10.4355 33.0873 11.6103 33.0735 12.7712 33.1012C13.1167 33.1012 13.255 33.0459 13.2273 32.6589C13.1997 31.8987 13.2135 31.1386 13.2135 30.3784C13.2135 29.7289 13.5314 29.3557 14.0566 29.3695C14.5541 29.3833 14.872 29.7427 14.872 30.3646C14.872 31.4979 14.872 32.6451 14.872 33.7784C14.872 34.4418 14.5679 34.7458 13.8907 34.7458C13.3241 34.7735 12.7436 34.7597 12.1493 34.7597ZM9.13632 38.9059C8.69405 38.8921 8.30707 39.2515 8.27943 39.6937C8.25179 40.1636 8.63877 40.5644 9.10868 40.5644C9.55095 40.5644 9.92412 40.1913 9.93794 39.749C9.93794 39.2929 9.57859 38.9198 9.13632 38.9059Z" fill="#020202"></path><path d="M35.8514 34.7595C35.2433 34.7595 34.649 34.7733 34.0409 34.7595C33.4327 34.7457 33.1149 34.4416 33.1149 33.8335C33.101 32.6587 33.101 31.484 33.1149 30.323C33.1149 29.7563 33.4466 29.397 33.9303 29.3832C34.4417 29.3694 34.7595 29.7425 34.7734 30.3506C34.7734 31.1246 34.801 31.8986 34.7595 32.6726C34.7457 33.0595 34.8701 33.1148 35.2156 33.1148C36.3766 33.0872 37.5237 33.101 38.6847 33.101C39.4587 33.101 39.7351 33.3912 39.7351 34.1652C39.7351 35.1189 39.7489 36.0587 39.7351 37.0123C39.7351 37.2611 39.8042 37.3993 40.0391 37.5237C41.1033 38.0765 41.6009 39.1822 41.3245 40.2879C41.0481 41.4212 40.0806 42.1952 38.9335 42.1952C37.7863 42.1952 36.805 41.435 36.5148 40.3155C36.2246 39.196 36.7083 38.0904 37.7725 37.5375C38.0351 37.3993 38.1042 37.2611 38.0904 36.9847C38.0766 36.3627 38.0766 35.7408 38.0904 35.1189C38.1042 34.8286 38.0213 34.7319 37.731 34.7457C37.0815 34.7733 36.4595 34.7595 35.8514 34.7595ZM38.8782 38.9058C38.4359 38.9196 38.0627 39.279 38.0627 39.735C38.0627 40.1773 38.4221 40.5505 38.8782 40.5643C39.3481 40.5781 39.7351 40.1773 39.7212 39.7074C39.7074 39.2513 39.3204 38.892 38.8782 38.9058Z" fill="#020202"></path><path d="M17.8014 36.418C18.7136 36.418 19.6257 36.418 20.5379 36.418C21.146 36.418 21.5192 36.7358 21.5054 37.2472C21.5054 37.7448 21.1322 38.0627 20.5241 38.0765C19.0591 38.0765 17.5941 38.0903 16.1291 38.0765C15.7974 38.0765 15.7006 38.1594 15.7006 38.4911C15.7144 39.9147 15.7144 41.352 15.7006 42.7756C15.7006 43.0382 15.7559 43.1902 16.0185 43.3284C17.0689 43.8674 17.5664 44.9869 17.2762 46.1064C16.986 47.2397 16.0185 47.9999 14.8714 47.9999C13.7519 47.9999 12.7706 47.2397 12.4803 46.1479C12.1901 45.0284 12.6462 43.8951 13.6966 43.3561C14.0006 43.1902 14.0559 43.0105 14.0421 42.7203C14.0283 40.9789 14.0283 39.2374 14.0421 37.496C14.0421 36.6944 14.3185 36.418 15.1339 36.418C16.0461 36.418 16.9168 36.418 17.8014 36.418ZM15.7282 45.5259C15.7421 45.0837 15.3827 44.6967 14.9266 44.6829C14.4844 44.669 14.0974 45.0284 14.0697 45.4707C14.0421 45.9406 14.4291 46.3414 14.899 46.3414C15.3413 46.3414 15.7144 45.982 15.7282 45.5259Z" fill="#020202"></path><path d="M30.1853 36.418C31.0975 36.418 32.0097 36.418 32.9218 36.418C33.6267 36.418 33.9169 36.722 33.9169 37.4269C33.9169 39.196 33.9308 40.9789 33.9169 42.7479C33.9169 43.0382 33.986 43.1902 34.2625 43.3422C35.2852 43.8674 35.7689 45.0008 35.5063 46.0926C35.2299 47.2259 34.2625 47.9999 33.1153 47.9999C31.9958 47.9999 31.0146 47.2536 30.7105 46.1617C30.4064 45.0422 30.8763 43.9089 31.9129 43.3561C32.2032 43.204 32.2861 43.052 32.2861 42.7341C32.2723 41.3244 32.2723 39.9147 32.2861 38.4911C32.2861 38.1594 32.217 38.0627 31.8715 38.0627C30.4203 38.0903 28.9829 38.0765 27.5317 38.0765C26.8683 38.0765 26.4951 37.7724 26.4951 37.261C26.4951 36.7359 26.8683 36.4318 27.5179 36.4318C28.4024 36.418 29.3008 36.418 30.1853 36.418ZM33.1015 46.3414C33.5438 46.3414 33.9169 45.982 33.9308 45.5259C33.9446 45.0837 33.5852 44.6967 33.1292 44.6829C32.6592 44.669 32.2723 45.056 32.2723 45.5121C32.2861 45.9682 32.6454 46.3414 33.1015 46.3414Z" fill="#020202"></path><path d="M8.0164 30.6272C7.17332 30.6272 6.33025 30.6134 5.48717 30.641C5.32132 30.641 5.00344 30.4614 4.98962 30.7931C4.98962 31.111 4.76848 31.4841 5.2384 31.7329C6.35789 32.3134 6.84162 33.4329 6.52374 34.5938C6.2335 35.6857 5.25222 36.432 4.1189 36.432C3.02705 36.432 2.04577 35.6857 1.74171 34.6215C1.43765 33.5296 1.86609 32.3687 2.8612 31.8296C3.23436 31.6223 3.31729 31.4012 3.28965 31.028C3.26201 30.6549 3.27583 30.2679 3.28965 29.8947C3.30347 29.3142 3.60753 28.9825 4.17419 28.9825C6.34407 28.9687 8.51395 28.9687 10.6838 28.9825C11.209 28.9825 11.5545 29.3419 11.5545 29.8118C11.5545 30.2817 11.209 30.6272 10.67 30.6272C9.81311 30.641 8.91476 30.6272 8.0164 30.6272ZM4.9758 33.9581C4.98962 33.5158 4.63028 33.1288 4.17419 33.115C3.73192 33.1012 3.34493 33.4467 3.31729 33.9028C3.28965 34.3727 3.67663 34.7735 4.13272 34.7735C4.58881 34.7597 4.96198 34.4003 4.9758 33.9581Z" fill="#020202"></path><path d="M40.5646 28.9683C41.6012 28.9683 42.6377 28.9683 43.6605 28.9683C44.3792 28.9683 44.6694 29.2585 44.6832 29.9634C44.6832 30.1016 44.697 30.2398 44.6832 30.378C44.6418 31.0691 44.6556 31.6219 45.4157 32.0642C46.3556 32.617 46.5629 33.8609 46.1482 34.8836C45.7336 35.8926 44.7109 36.5007 43.6328 36.4178C42.5548 36.321 41.6565 35.5056 41.4215 34.4137C41.2004 33.4048 41.6841 32.2715 42.6516 31.8016C43.2044 31.539 43.0109 31.1382 43.0109 30.765C43.0109 30.5162 42.7621 30.6406 42.6377 30.6406C40.8963 30.6268 39.1549 30.6268 37.4134 30.6406C37.0264 30.6406 36.6947 30.5577 36.5013 30.1845C36.1972 29.6179 36.598 28.9959 37.3029 28.9821C38.3947 28.9545 39.4727 28.9683 40.5646 28.9683ZM44.6832 33.93C44.6832 33.4877 44.3239 33.1146 43.8678 33.1007C43.4255 33.0869 43.0385 33.4463 43.0247 33.9024C43.0109 34.3723 43.3979 34.7593 43.8678 34.7593C44.3101 34.7593 44.6832 34.3861 44.6832 33.93Z" fill="#020202"></path><path d="M24.8223 40.0941C24.8223 41.0063 24.8223 41.9185 24.8223 42.8307C24.8223 43.0656 24.8776 43.19 25.0987 43.3006C26.1906 43.8672 26.6881 44.9729 26.3979 46.1062C26.1077 47.2119 25.154 47.9721 24.0345 47.9859C22.8874 47.9997 21.8923 47.2396 21.602 46.1201C21.298 44.9867 21.7817 43.8811 22.8736 43.3006C23.15 43.1624 23.1638 42.9827 23.1638 42.7339C23.1638 40.9234 23.15 39.1129 23.1638 37.3023C23.1638 36.7495 23.5093 36.3901 24.0069 36.3901C24.4768 36.404 24.7947 36.7495 24.8223 37.2747C24.8223 37.3714 24.8223 37.482 24.8223 37.5787C24.8223 38.4495 24.8223 39.2787 24.8223 40.0941ZM24.8223 45.5534C24.85 45.1111 24.4906 44.7103 24.0483 44.6827C23.6061 44.655 23.2053 45.0006 23.1776 45.4428C23.1362 45.9127 23.5093 46.3135 23.9792 46.3412C24.4215 46.355 24.8085 46.0095 24.8223 45.5534Z" fill="#020202"></path><path d="M9.93715 3.34444C9.92333 3.78671 9.55016 4.15987 9.10789 4.15987C8.63798 4.15987 8.26482 3.75906 8.29246 3.28915C8.3201 2.84688 8.69326 2.48754 9.14935 2.50136C9.59162 2.51518 9.93715 2.88835 9.93715 3.34444Z" fill="#0C0C0C"></path><path d="M39.7213 3.33072C39.7213 3.77299 39.3481 4.14615 38.9058 4.15997C38.4359 4.15997 38.0489 3.77299 38.0766 3.30308C38.0904 2.84699 38.4636 2.50146 38.9197 2.50146C39.3619 2.50146 39.7213 2.87463 39.7213 3.33072Z" fill="#0C0C0C"></path><path d="M9.9371 45.526C9.9371 45.9683 9.56393 46.3415 9.12166 46.3553C8.65175 46.3553 8.26477 45.9683 8.29241 45.4984C8.30623 45.0561 8.6794 44.6968 9.13549 44.6968C9.57775 44.6968 9.9371 45.0699 9.9371 45.526Z" fill="#0C0C0C"></path><path d="M38.8789 44.6967C39.3212 44.6828 39.7082 45.056 39.722 45.4983C39.7358 45.9405 39.3765 46.3275 38.9342 46.3552C38.4643 46.3828 38.0635 45.9958 38.0635 45.5259C38.0635 45.0698 38.4228 44.6967 38.8789 44.6967Z" fill="#0C0C0C"></path><path d="M20.6906 24.0068C20.6906 23.2328 20.6906 22.4589 20.6906 21.6849C20.6906 21.0077 20.9946 20.7036 21.658 20.7036C23.2198 20.7036 24.7954 20.7036 26.3571 20.7036C26.9929 20.7036 27.297 21.0215 27.297 21.6573C27.297 23.219 27.297 24.7946 27.297 26.3564C27.297 27.0059 26.9929 27.31 26.3571 27.31C24.7677 27.3238 23.1922 27.3238 21.6028 27.31C20.9946 27.31 20.6906 26.9921 20.6768 26.384C20.6906 25.5962 20.6906 24.7946 20.6906 24.0068ZM25.6523 24.0483C25.6523 23.606 25.6385 23.1499 25.6523 22.7076C25.6661 22.4589 25.6108 22.3483 25.3206 22.3483C24.436 22.3759 23.5653 22.3621 22.6808 22.3483C22.432 22.3483 22.3214 22.3898 22.3214 22.68C22.3491 23.5645 22.3353 24.4353 22.3214 25.3198C22.3214 25.5686 22.3629 25.6791 22.6531 25.6791C23.5377 25.6515 24.4084 25.6515 25.2929 25.6791C25.6108 25.693 25.6523 25.5686 25.6523 25.2922C25.6385 24.8775 25.6523 24.4629 25.6523 24.0483Z" fill="#010101"></path></g><defs><clipPath id="clip0_11760_1851"><rect width="48" height="48" fill="white"></rect></clipPath></defs></svg> 