<?xml version="1.0" encoding="UTF-8"?> <svg xmlns="http://www.w3.org/2000/svg" width="38" height="37" viewBox="0 0 38 37" fill="none"><g clip-path="url(#clip0_861_589)"><path d="M34.2684 36.9998C33.6154 36.8485 33.0246 36.667 32.4959 36.2434C31.4697 35.3661 31.0966 34.277 31.4075 32.9761C31.4697 32.734 31.4386 32.5828 31.2831 32.4013C30.7856 31.8567 30.3192 31.2819 29.8216 30.7373C29.7283 30.6466 29.5728 30.5558 29.4484 30.5558C27.8003 30.5558 26.1522 30.5558 24.473 30.5558C24.473 30.8886 24.473 31.2214 24.473 31.5542C24.4419 32.9156 23.8511 33.9442 22.5761 34.519C22.1097 34.7308 21.5499 34.8518 21.0524 34.8518C15.1751 34.882 9.29787 34.882 3.45172 34.8518C1.46154 34.8518 0.0310966 33.4601 0.0310966 31.5239C0 27.2279 0 22.9319 0 18.6662C0 17.2745 0.684125 16.2459 1.99018 15.6408C2.20786 15.5501 2.20786 15.4291 2.20786 15.2475C2.20786 13.4928 2.20786 11.7684 2.20786 10.0137C2.23895 6.17149 3.91817 3.20665 7.36989 1.30068C10.635 -0.484271 13.9935 -0.423764 17.2275 1.36119C19.8396 2.81336 21.4566 5.05211 22.0475 7.89594C22.2029 8.56152 22.234 9.2876 22.234 9.98343C22.2651 11.7381 22.234 13.4928 22.234 15.2475C22.234 15.4593 22.2962 15.5501 22.4828 15.6408C23.6956 16.2156 24.3486 17.1535 24.4419 18.4847C24.473 18.878 24.4419 19.241 24.4419 19.6645C24.5974 19.6645 24.7218 19.6948 24.8151 19.6948C26.3388 19.6948 27.8625 19.6948 29.3863 19.6948C29.5728 19.6948 29.7905 19.604 29.946 19.483C30.4746 19.0292 30.9722 18.5754 31.4386 18.0914C31.5319 18.0006 31.563 17.8191 31.5319 17.6981C30.6923 15.5501 32.1228 13.3718 34.4861 13.2206C36.072 13.1298 37.5957 14.3097 37.8756 15.8526C37.8756 15.9434 37.9067 16.0039 37.9378 16.0946C37.9378 16.3367 37.9378 16.5787 37.9378 16.8207C37.9067 16.851 37.9067 16.9115 37.8756 16.9417C37.5647 19.0292 35.2946 20.1789 33.491 19.483C33.2733 19.3923 33.1489 19.4528 32.9935 19.604C32.3404 20.2091 31.6874 20.8142 31.0344 21.4192C30.7234 21.7218 30.3502 21.873 29.9149 21.8428C28.2357 21.8428 26.5254 21.8428 24.8462 21.8428C24.7218 21.8428 24.5974 21.8428 24.4419 21.8428C24.4419 22.5689 24.4419 23.295 24.4419 24.021C24.5974 24.021 24.7218 24.021 24.8151 24.021C26.8985 24.021 28.9509 24.021 31.0344 24.021C31.3142 24.021 31.4697 23.9303 31.563 23.6883C32.5581 21.6008 35.5745 21.2377 37.0671 22.9924C37.5025 23.5067 37.7201 24.1118 37.8756 24.7471C37.8756 24.9892 37.8756 25.2312 37.8756 25.4732C37.8445 25.5337 37.8134 25.5942 37.8134 25.685C37.5647 27.1069 36.4141 28.1355 34.8903 28.3473C33.5221 28.5288 32.1228 27.7725 31.5319 26.4716C31.4386 26.2598 31.3142 26.1993 31.0966 26.1993C28.982 26.1993 26.8363 26.1993 24.7218 26.1993C24.6285 26.1993 24.5041 26.1993 24.4108 26.2295C24.4108 26.9556 24.4108 27.6515 24.4108 28.3775C24.5663 28.3775 24.6907 28.3775 24.8151 28.3775C26.4632 28.3775 28.1113 28.4078 29.7594 28.3775C30.3502 28.3775 30.7856 28.5591 31.1588 29.0129C31.7185 29.6784 32.3093 30.344 32.8691 30.9793C32.9624 30.9491 33.0246 30.9188 33.0557 30.8886C34.5483 30.223 36.1342 30.5558 37.1604 31.7962C37.5647 32.2802 37.7512 32.8551 37.8756 33.4299C37.8756 33.6719 37.8756 33.9139 37.8756 34.156C37.8445 34.2165 37.8134 34.277 37.8134 34.3375C37.689 35.1241 37.2848 35.7896 36.6318 36.304C36.1342 36.7275 35.5123 36.909 34.8903 37.0603C34.766 36.9998 34.5172 36.9998 34.2684 36.9998ZM12.252 32.6735C15.144 32.6735 18.036 32.6735 20.928 32.6735C21.8609 32.6735 22.2651 32.2802 22.2651 31.3726C22.2651 27.1977 22.2651 22.9924 22.2651 18.8174C22.2651 17.9098 21.8609 17.5165 20.928 17.5165C15.144 17.5165 9.36007 17.5165 3.57611 17.5165C2.64321 17.5165 2.23895 17.9098 2.23895 18.8174C2.23895 22.9924 2.23895 27.1977 2.23895 31.3726C2.23895 32.2802 2.64321 32.6735 3.57611 32.6735C6.46809 32.6735 9.36007 32.6735 12.252 32.6735ZM6.68576 15.3383C6.68576 15.187 6.68576 15.0358 6.68576 14.9147C6.68576 13.1298 6.65467 11.3448 6.71686 9.52963C6.77905 6.77656 9.17349 4.4773 11.9722 4.38654C15.1751 4.26552 17.7872 6.65555 17.8183 9.77166C17.8494 11.4961 17.8183 13.2206 17.8183 14.945C17.8183 15.066 17.8183 15.187 17.8183 15.3383C18.5957 15.3383 19.311 15.3383 20.0262 15.3383C20.0262 13.2811 20.0573 11.2541 20.0262 9.22709C19.9951 8.19848 19.653 7.26062 19.1866 6.32276C17.6007 3.32767 13.9002 1.60322 10.5728 2.38981C6.87234 3.26716 4.44681 6.232 4.44681 9.95318C4.44681 11.6171 4.44681 13.3113 4.44681 14.9753C4.44681 15.0963 4.44681 15.2173 4.44681 15.3383C5.19313 15.3383 5.90835 15.3383 6.68576 15.3383ZM15.5483 15.3383C15.5794 15.308 15.5794 15.2778 15.5794 15.2475C15.5794 13.4021 15.6416 11.5566 15.5794 9.6809C15.5172 7.62366 13.7136 6.26225 11.6301 6.59504C10.0753 6.83707 8.95581 8.22873 8.92471 9.89267C8.92471 11.6171 8.92471 13.3416 8.92471 15.0358C8.92471 15.1265 8.95581 15.2173 8.95581 15.308C11.1326 15.308 13.2782 15.308 15.4239 15.308C15.455 15.3383 15.5172 15.3383 15.5483 15.3383ZM35.7611 16.4274C35.7611 15.8526 35.2635 15.3383 34.6727 15.3383C34.0818 15.3383 33.5532 15.8224 33.5532 16.3972C33.5532 16.972 34.0507 17.4863 34.6416 17.4863C35.2324 17.5165 35.7611 17.0325 35.7611 16.4274ZM34.6416 26.169C35.2324 26.169 35.7611 25.6547 35.73 25.0799C35.73 24.5051 35.2013 23.9908 34.6105 24.021C34.0196 24.021 33.491 24.5354 33.5221 25.1102C33.5532 25.685 34.0507 26.169 34.6416 26.169ZM35.7611 33.7627C35.7611 33.1878 35.2635 32.6735 34.6727 32.6735C34.0818 32.6735 33.5532 33.1576 33.5532 33.7324C33.5532 34.3072 34.0507 34.8215 34.6416 34.8215C35.2324 34.8215 35.7611 34.3375 35.7611 33.7627Z" fill="#2EB367"></path><path d="M11.1325 27.8029C11.1325 27.2886 11.1325 26.7743 11.1325 26.26C11.1325 26.0482 11.0703 25.9575 10.8837 25.897C8.76914 24.9289 8.2405 22.3573 9.82642 20.7236C10.7904 19.7555 11.9721 19.453 13.2781 19.9068C14.522 20.3303 15.2994 21.2077 15.486 22.4783C15.7348 23.991 14.9885 25.2617 13.5269 25.9272C13.3403 26.018 13.3092 26.1088 13.3092 26.2903C13.3092 27.2886 13.3092 28.3173 13.3092 29.3156C13.3092 30.0417 12.8739 30.556 12.1898 30.556C11.5367 30.556 11.0703 30.072 11.0703 29.3459C11.1325 28.7711 11.1325 28.287 11.1325 27.8029ZM13.3403 22.9019C13.3403 22.3271 12.8117 21.8128 12.2209 21.843C11.63 21.843 11.1014 22.3573 11.1325 22.9321C11.1325 23.507 11.6611 24.0213 12.252 23.991C12.8739 23.991 13.3714 23.507 13.3403 22.9019Z" fill="#2EB367"></path></g><defs><clipPath id="clip0_861_589"><rect width="38" height="37" fill="white"></rect></clipPath></defs></svg> 