<?xml version="1.0" encoding="UTF-8"?> <svg xmlns="http://www.w3.org/2000/svg" width="47" height="47" viewBox="0 0 47 47" fill="none"><circle cx="23.4535" cy="23.4535" r="23.4535" fill="#F5F9FF"></circle><g clip-path="url(#clip0_422_750)"><path d="M17.9512 27.8728H31.5729C31.7721 27.8728 31.9508 27.7492 32.0216 27.562L34.7502 20.3898C34.8063 20.2418 34.7862 20.0756 34.6966 19.9452C34.607 19.8148 34.4592 19.737 34.3015 19.737H16.9398C16.8001 19.7357 16.6668 19.7955 16.5742 19.9009C16.4821 20.0068 16.4405 20.1471 16.4598 20.2865L17.487 27.4609C17.5209 27.6932 17.7167 27.8671 17.9503 27.8727L17.9512 27.8728ZM31.2317 26.9088H18.3659L17.4779 20.7005L33.5988 20.7009L31.2317 26.9088Z" fill="#2176FF" stroke="#2176FF" stroke-width="0.5"></path><path d="M16.5107 30.0706H31.2339C31.4991 30.0706 31.7138 29.8546 31.7138 29.5887C31.7138 29.3223 31.4991 29.1067 31.2339 29.1067H16.9133L14.7389 16.1507C14.699 15.9171 14.495 15.7471 14.2589 15.7505H10.9903C10.59 15.7346 10.2009 15.8826 9.91203 16.1615C9.62318 16.4399 9.4599 16.8247 9.4599 17.2266C9.4599 17.629 9.62318 18.0137 9.91203 18.2922C10.2009 18.571 10.59 18.7191 10.9903 18.7027H13.1768C13.4417 18.7027 13.6568 18.4871 13.6568 18.2207C13.6568 17.9548 13.4417 17.7387 13.1768 17.7387H10.9903C10.8488 17.7486 10.71 17.6992 10.6063 17.6019C10.503 17.5051 10.4443 17.3691 10.4443 17.2266C10.4443 17.0846 10.503 16.9486 10.6063 16.8518C10.71 16.7545 10.8488 16.7051 10.9903 16.7145H13.8702L16.0302 29.6704C16.0704 29.9041 16.274 30.0741 16.5101 30.0707L16.5107 30.0706Z" fill="#2176FF" stroke="#2176FF" stroke-width="0.5"></path><path d="M28.8509 34.6272C29.3755 34.6272 29.8786 34.4181 30.2493 34.0458C30.62 33.6732 30.8287 33.1684 30.8287 32.6416C30.8287 32.1149 30.62 31.6096 30.2493 31.2374C29.8786 30.8652 29.3755 30.6556 28.8509 30.6556C28.3264 30.6556 27.8237 30.8652 27.4526 31.2374C27.0819 31.6097 26.8736 32.1149 26.8736 32.6416C26.874 33.1679 27.0827 33.6727 27.4534 34.045C27.8241 34.4172 28.3268 34.6268 28.8509 34.6272L28.8509 34.6272ZM28.8509 31.6195C29.2628 31.6195 29.6335 31.8687 29.7912 32.2504C29.9485 32.6321 29.8615 33.0719 29.5705 33.3641C29.2795 33.6563 28.8419 33.7437 28.4619 33.5853C28.0813 33.4274 27.8336 33.0547 27.8336 32.6415C27.8336 32.3704 27.9407 32.1105 28.1314 31.919C28.3226 31.7275 28.581 31.6195 28.851 31.6195L28.8509 31.6195Z" fill="#FFCA00"></path><ellipse rx="1.16982" ry="1.17354" transform="matrix(-1 0 0 1 28.9683 32.6001)" fill="#FFCA00"></ellipse><ellipse rx="1.16982" ry="1.17354" transform="matrix(-1 0 0 1 20.6124 32.6001)" fill="#FFCA00"></ellipse><path d="M20.6457 34.6272C21.1702 34.6272 21.6729 34.4181 22.0441 34.0458C22.4148 33.6732 22.623 33.1684 22.623 32.6416C22.623 32.1149 22.4148 31.6096 22.0441 31.2374C21.6729 30.8652 21.1702 30.6556 20.6457 30.6556C20.1211 30.6556 19.618 30.8652 19.2473 31.2374C18.8766 31.6097 18.6679 32.1149 18.6679 32.6416C18.6688 33.1679 18.8775 33.6727 19.2482 34.045C19.6189 34.4172 20.1211 34.6268 20.6457 34.6272L20.6457 34.6272ZM20.6457 31.6195C21.0571 31.6195 21.4282 31.8687 21.5855 32.2504C21.7432 32.6321 21.6562 33.0719 21.3652 33.3641C21.0742 33.6563 20.6363 33.7437 20.2562 33.5853C19.876 33.4274 19.6279 33.0547 19.6279 32.6415C19.6279 32.3704 19.7355 32.1105 19.9262 31.919C20.1169 31.7275 20.3757 31.6195 20.6457 31.6195L20.6457 31.6195Z" fill="#FFCA00"></path></g><defs><clipPath id="clip0_422_750"><rect width="28.7442" height="26.6409" fill="white" transform="translate(8.41293 9.81509)"></rect></clipPath></defs></svg> 