<?xml version="1.0" encoding="UTF-8"?> <svg xmlns="http://www.w3.org/2000/svg" width="40" height="37" viewBox="0 0 40 37" fill="none"><path d="M0 23.756C0.0705832 23.0532 0.141166 22.3269 0.235277 21.6241C0.72936 17.9694 1.50577 14.3851 3.24682 11.0584C4.02324 9.58252 4.98788 8.24717 6.32896 7.2398C7.62298 6.27928 9.10523 5.85759 10.6816 6.04501C12.2109 6.23243 13.6931 6.58384 15.1989 6.88839C16.6106 7.16952 18.0222 7.54435 19.4574 7.68492C20.3515 7.77862 21.2926 7.59121 22.1867 7.42722C23.9983 7.05238 25.8099 6.58384 27.6216 6.209C29.1273 5.90445 30.6331 5.88102 32.0918 6.49013C33.3859 7.02895 34.374 7.94261 35.221 9.02026C36.7738 11.0116 37.6444 13.3074 38.3267 15.697C39.2678 18.9065 39.8089 22.1863 39.7619 25.5599C39.7383 27.0358 39.5972 28.5117 38.9384 29.8939C38.1385 31.5104 36.7503 32.2366 34.9622 31.9321C33.527 31.6978 32.2565 31.0184 31.1037 30.1984C30.0214 29.4253 28.9156 28.6288 27.9509 27.6917C26.1158 25.8878 23.8806 25.1147 21.3867 24.9039C19.2692 24.7165 17.1752 24.9039 15.1519 25.5833C14.0461 25.9581 13.1049 26.5672 12.2579 27.3403C10.9169 28.5585 9.5052 29.7299 7.92884 30.667C6.98773 31.2292 5.99957 31.7212 4.89377 31.9086C2.96449 32.2366 1.43519 31.3932 0.682303 29.5659C0.305859 28.6522 0.141164 27.6917 0.0705803 26.7078C0.0470526 26.4969 0.0235277 26.3095 0 26.0987C0 25.3022 0 24.5291 0 23.756ZM1.83516 25.2085C1.85869 25.677 1.85869 26.2861 1.92927 26.8952C2.02338 27.4809 2.14102 28.09 2.32924 28.6522C2.70569 29.8002 3.55269 30.2922 4.70555 29.9876C5.50549 29.7533 6.35249 29.4488 7.03479 28.9802C8.46998 27.9729 9.83459 26.8718 11.1992 25.7707C12.1638 24.9742 13.1991 24.3182 14.3754 23.8965C17.7634 22.7017 21.175 22.6549 24.5865 23.6388C25.9981 24.0371 27.2686 24.7633 28.3744 25.7473C29.5273 26.7546 30.7272 27.7386 31.9507 28.6522C32.8918 29.3551 33.9505 29.9173 35.1504 30.1282C36.0915 30.2922 36.7738 29.9876 37.1973 29.1208C37.6679 28.1837 37.8326 27.1763 37.8561 26.1221C37.9973 22.772 37.4562 19.5156 36.5621 16.2827C35.9739 14.104 35.174 12.0189 33.7858 10.2151C32.4683 8.48144 30.7272 7.56778 28.5391 7.89576C26.9393 8.13003 25.3394 8.48144 23.763 8.8797C21.1985 9.55909 18.6575 9.62937 16.0694 8.92656C14.4931 8.50487 12.8932 8.15346 11.2698 7.87233C9.57579 7.59121 8.04648 8.03632 6.75246 9.23111C5.5996 10.3088 4.82319 11.6441 4.23499 13.0732C2.68216 16.9387 1.92927 20.9447 1.83516 25.2085Z" fill="#BF3DCE"></path><path d="M16.1646 16.3768C16.1646 17.7121 15.1999 18.8835 13.8589 19.1412C13.6471 19.188 13.5295 19.2349 13.4824 19.4691C13.2236 20.8279 12.0002 21.8119 10.6356 21.7884C9.24742 21.765 8.09456 20.8045 7.83576 19.4223C7.7887 19.188 7.67107 19.188 7.50637 19.1412C5.24771 18.696 4.37718 16.1425 5.88296 14.4089C6.30646 13.9169 6.84759 13.6358 7.48284 13.5186C7.69459 13.4718 7.81223 13.4249 7.85929 13.1907C8.09456 11.8553 9.27095 10.8948 10.6591 10.8714C11.9766 10.8479 13.2001 11.8084 13.4824 13.1204C13.5295 13.4015 13.6471 13.4952 13.9059 13.5421C15.1999 13.7998 16.1646 15.0414 16.1646 16.3768ZM14.3765 16.3299C14.3765 15.7676 13.9765 15.346 13.4118 15.3225C13.2236 15.3225 13.0354 15.3225 12.8236 15.3225C12.0708 15.3225 11.7178 14.9477 11.6943 14.198C11.6943 13.9403 11.6943 13.6826 11.6237 13.4249C11.5061 12.9095 11.0826 12.605 10.5885 12.6518C10.0709 12.6753 9.67092 13.0735 9.62387 13.5889C9.60034 13.7998 9.62387 14.034 9.62387 14.2449C9.62387 14.9243 9.24742 15.2991 8.58865 15.3225C8.35337 15.3225 8.11809 15.3225 7.88282 15.346C7.29462 15.4162 6.9417 15.8379 6.96523 16.4002C6.98876 16.9156 7.38873 17.3138 7.9534 17.3607C8.16515 17.3841 8.40042 17.3607 8.61217 17.3607C9.22389 17.3841 9.60034 17.7355 9.62387 18.3446C9.64739 18.5555 9.62387 18.7897 9.62387 19.0006C9.64739 19.5863 10.0474 19.9845 10.6356 20.008C11.2238 20.0314 11.6472 19.6566 11.6943 19.0709C11.7178 18.86 11.6943 18.6258 11.7178 18.4149C11.7414 17.8292 12.0708 17.4544 12.6825 17.431C12.9413 17.4075 13.2236 17.431 13.5059 17.4075C14.0471 17.2904 14.3765 16.8921 14.3765 16.3299Z" fill="#BF3DCE"></path><path d="M26.7754 12.8618C26.7754 11.9011 27.5048 11.1278 28.4694 11.1278C29.434 11.1278 30.2104 11.8776 30.2104 12.8149C30.2104 13.7756 29.4576 14.5489 28.5164 14.5489C27.5518 14.5723 26.7989 13.8225 26.7754 12.8618Z" fill="#BF3DCE"></path><path d="M24.9857 14.6205C25.9268 14.6205 26.7032 15.4172 26.7032 16.3545C26.7032 17.2918 25.9033 18.065 24.9622 18.065C24.0211 18.065 23.2211 17.2683 23.2446 16.331C23.2682 15.3937 24.0446 14.6205 24.9857 14.6205Z" fill="#BF3DCE"></path><path d="M30.2808 16.3545C30.2808 15.4172 31.0337 14.6205 31.9983 14.6205C32.9629 14.6205 33.7393 15.3703 33.7393 16.331C33.7629 17.2683 32.9864 18.065 32.0218 18.065C31.0807 18.065 30.3043 17.3152 30.2808 16.3545Z" fill="#BF3DCE"></path><path d="M26.7754 19.8437C26.7754 18.8829 27.5518 18.1097 28.4929 18.1331C29.434 18.1331 30.2104 18.9064 30.2104 19.8671C30.2104 20.8044 29.434 21.6011 28.4929 21.5776C27.5518 21.5542 26.7754 20.781 26.7754 19.8437Z" fill="#BF3DCE"></path></svg> 