<svg xmlns="http://www.w3.org/2000/svg" xmlns:xlink="http://www.w3.org/1999/xlink" xml:space="preserve" id="prefix__Layer_1" x="0" y="0" enable-background="new 0 0 1920 900" version="1.1" viewBox="0 0 1920 900"><linearGradient id="prefix__SVGID_1_" x1=".124" x2="1919.884" y1="449.945" y2="449.945" gradientUnits="userSpaceOnUse"><stop offset="0" stop-color="#1671FF"/><stop offset="1" stop-color="#03A2EC"/></linearGradient><path d="M1919.9 0v60c-3.2 1.9-6.4 3.6-9.5 5.6-138.4 87.3-276.5 175.1-415.4 261.7-195.9 122.3-392.6 243.2-592.4 359-95.8 55.7-192.2 110.4-291.8 159.2-57.3 28-117.6 44.9-180.9 51.6-7.9.8-15.8 1.9-23.8 2.8h-50c-8.5-1-17.1-1.9-25.7-2.8-56.3-6-108.8-23.6-157.4-52.4-67.8-40.2-119.6-96-159.5-163.5-4.6-7.7-8.9-15.5-13.4-23.3V0h1919.8z" style="fill:url(#prefix__SVGID_1_)"/><defs><path id="prefix__SVGID_2_" d="M.1 657.9V0h1919.8v60c-3.2 1.8-6.4 3.6-9.5 5.6-138.4 87.3-276.5 175.1-415.4 261.7-195.9 122.3-392.6 243.2-592.4 359-95.8 55.7-192.2 110.4-291.8 159.2-57.3 28-117.6 44.9-181 51.6-7.9.8-15.8 1.9-23.8 2.8h-50c-8.5-1-17.1-1.9-25.7-2.8-56.3-6-108.8-23.6-157.4-52.4-67.8-40.2-119.6-96-159.5-163.5-4.5-7.7-8.8-15.5-13.3-23.3z"/></defs><clipPath id="prefix__SVGID_3_"><use xlink:href="#prefix__SVGID_2_" overflow="visible"/></clipPath><g style="opacity:.12;clip-path:url(#prefix__SVGID_3_)"><path d="M161.6 785.5c.6-4.6 1.1-9.3 1.7-13.9 8-63.7 56.1-118.2 118.5-134 31.1-7.9 61.8-6.4 92.1 4.4.9.3 1.8.7 3.2 1.2-6.7 5.6-9.8 12.7-9.5 21.1-6.1-1.7-12-3.5-17.9-4.8-52-11.9-107.4 9.5-138.4 53.1-19.4 27.3-28 57.8-26.2 91.2 3.5 63.4 51.6 117.1 114 127.3 68.4 11.3 135.7-32.2 152.5-100.2 14.5-58.6-2.4-107.9-49-146.6-.3-.3-.6-.5-1.1-1 7.4-4.4 11.6-10.9 12.5-20 3.8 3.2 7.5 5.9 10.9 8.9 30 27 48 60.5 53.4 100.5 8.9 64.8-21.7 128.4-77.7 161.7-20.9 12.5-43.6 19.6-67.9 21.4-.9.1-1.7.3-2.6.5h-18.7c-.9-.2-1.7-.3-2.6-.5-8.6-1.4-17.4-2.2-25.9-4.2-62.7-15.1-111.6-70-119.7-134.1-.6-4.6-1.1-9.3-1.7-13.9.1-6 .1-12.1.1-18.1z" class="prefix__st2"/><path d="M230.1 879.4c17.6-30.7 34.8-60.9 52.3-91.5-3.6 0-6.8.2-9.9 0-6.6-.4-13.4 0-19.7-1.6-22.5-5.5-31.5-22.6-28.8-43.8 2.6-19.9 17.7-32.6 39.2-32.7 30-.3 60.1-.1 90.1-.1.6 0 1.3.1 2.3.3-2.5 4.4-4.9 8.5-7.2 12.6-2 3.5-4.1 6.9-5.9 10.4-1 1.9-2.2 2.5-4.3 2.5-23.9-.1-47.8-.1-71.7 0-3.1 0-6.3.4-9.1 1.5-5.8 2.1-8.3 7.1-7.5 14 .6 5.2 4.3 8.9 10 9.9 1.6.3 3.3.4 4.9.4h61.5c-.7 1.4-1.1 2.3-1.6 3.2-21.2 37.4-42.4 74.7-63.6 112.1-1.1 2-2.4 2.9-4.7 2.8-7.5-.2-15-.1-22.5-.1-1.1.1-2.1.1-3.8.1zM285.9 879.4c.7-1.3 1.1-2.2 1.5-3 3.9-6.8 7.8-13.5 11.5-20.3 1-1.9 2.2-2.5 4.3-2.5 24.1.1 48.2.1 72.3 0 3 0 6.3-.5 9.1-1.7 5.4-2.1 7.7-7.2 6.9-13.8-.6-5.1-4.3-8.8-9.8-9.8-1.8-.3-3.7-.5-5.5-.5H315c.7-1.3 1.1-2.1 1.5-2.9 21.3-37.5 42.6-75.1 63.9-112.7 1.1-2 2.4-2.6 4.6-2.6 7.6.1 15.2 0 22.8.1 1 0 1.9.1 3.4.1-17.5 30.6-34.7 60.8-52.3 91.4h18.6c6.3 0 12.4 1.4 18.2 3.9 14.1 6.1 21 17 22.1 32.1.4 6.4-.2 12.7-2.5 18.7-5.2 13.3-15.7 19.8-29.1 22.6-2.8.6-5.8.9-8.7.9-29.4.1-58.7 0-88.1 0h-3.5zM402.3 662.3c0 6.6-5.2 11.9-11.6 11.8-6.3-.1-11.4-5.3-11.5-11.6-.1-6.6 5-11.9 11.4-12 6.5-.1 11.7 5.2 11.7 11.8z" class="prefix__st2"/></g><linearGradient id="prefix__SVGID_4_" x1=".124" x2="422.434" y1="292.02" y2="292.02" gradientUnits="userSpaceOnUse"><stop offset="0" stop-color="#1671FF"/><stop offset="1" stop-color="#03A2EC"/></linearGradient><path d="M422.4 102.5v25.2c-.4 1.4-.9 2.8-1.1 4.2-12.2 93.3-112.8 143.6-192.5 96.2l-4.8-2.7c1.1 2.1 2.6 3.6 4.1 5 46 42.4 92.5 84.1 137.7 127.4 36.1 34.6 48.4 78.2 36.4 127.1-11.9 48.4-42.9 79.7-89.8 94.2-7.2 2.2-14.8 3.4-22.2 5h-24.7c-.5-.3-1.1-.7-1.6-.8-31.6-3.4-57.1-18.8-80.4-40.3-61-56.6-122.2-113-183.4-169.4V0h360.6c5.9 5.4 11.8 10.9 17.7 16.3 18.3 16.8 31.6 37 38.5 61.1 2.5 8.2 3.8 16.7 5.5 25.1z" style="opacity:.25;fill:url(#prefix__SVGID_4_);enable-background:new"/><linearGradient id="prefix__SVGID_5_" x1="1318.374" x2="1809.724" y1="88.785" y2="88.785" gradientUnits="userSpaceOnUse"><stop offset="0" stop-color="#1671FF"/><stop offset="1" stop-color="#03A2EC"/></linearGradient><path d="M1809.7 0c-99.5 53.6-199.1 107.2-298.6 160.7-12.6 6.8-26.2 11.7-40.7 14.3-5.9 1-11.8 1.7-17.7 2.5-7.3-.1-14.6-.3-21.9-.4-1-.3-2.1-.7-3.1-.8-52.4-6.1-94.8-40.1-106.1-85.2-1.4-5.5-2.2-11.1-3.3-16.7.2-6.4.3-12.7.5-19.1.3-.8.7-1.5.9-2.3 3.4-20.5 11.8-38.2 25.1-53.1h464.9z" style="opacity:.25;fill:url(#prefix__SVGID_5_);enable-background:new"/></svg>