<?xml version="1.0" encoding="UTF-8"?> <svg xmlns="http://www.w3.org/2000/svg" width="45" height="45" viewBox="0 0 45 45" fill="none"><circle cx="22.4535" cy="22.4535" r="22.4535" fill="#EFF5FF"></circle><g clip-path="url(#clip0_422_443)"><path d="M17.0868 27.2489H17.6821V29.9808C17.6821 30.2549 17.8353 30.4744 18.0321 30.6093L18.0468 30.6194L18.0628 30.6273L22.9898 33.0625L23.0041 33.0696L23.0193 33.0748C23.0251 33.0768 23.0325 33.0796 23.0412 33.083C23.091 33.102 23.1856 33.1381 23.2937 33.1381C23.4018 33.1381 23.4968 33.1018 23.5462 33.083C23.5549 33.0797 23.5622 33.0769 23.5678 33.0749L23.5832 33.0697L23.5977 33.0625L28.5247 30.6273L28.5247 30.6273L28.5284 30.6254C28.7611 30.5056 28.9054 30.2678 28.9054 29.9808V27.2489H30.2252V27.249L30.2318 27.2488C32.285 27.1946 33.8586 25.2333 33.808 22.9679L33.808 22.967C33.7593 21.0826 32.6251 19.4762 31.0417 19.0238C30.8802 17.0236 30.0461 15.1253 28.6847 13.8238C27.4318 12.5871 25.8216 11.9371 24.1796 11.9891C21.7738 12.065 19.6057 13.6338 18.4574 16.0187C17.9237 15.8186 17.3832 15.7184 16.8377 15.7412C14.0576 15.7961 11.9079 18.4809 11.9824 21.6115C12.0076 23.2602 12.6336 24.8158 13.7237 25.8852L13.7245 25.886C14.6372 26.7728 15.7612 27.2489 16.966 27.2489H17.0868ZM13.3757 21.6016C13.3292 19.1624 14.9497 17.2073 16.8963 17.1598C17.4292 17.1603 17.9676 17.2969 18.5139 17.5773C18.8598 17.7727 19.1439 18.0991 19.352 18.4579C19.5608 18.8179 19.6806 19.1889 19.7125 19.4484C19.751 19.795 20.048 20.0673 20.3956 20.0673H20.4681H20.481L20.4938 20.066C20.8995 20.0241 21.1379 19.6274 21.1034 19.2714L21.1037 19.2714L21.102 19.2599C21.0043 18.5806 20.567 17.4629 19.7105 16.7136C20.6203 14.7219 22.3586 13.4538 24.2652 13.4078C25.5474 13.3844 26.7874 13.8784 27.78 14.8521L27.78 14.8522L27.7815 14.8536C28.8307 15.8656 29.4956 17.3348 29.6833 18.9211H29.5249C29.1219 18.9211 28.8401 19.2814 28.8401 19.6432C28.8401 20.0402 29.1803 20.3405 29.549 20.3405V20.3408L29.5607 20.3402C30.0858 20.3156 30.3506 20.3417 30.4404 20.3603L30.4481 20.3618L30.4559 20.363C31.5364 20.5156 32.4386 21.6257 32.4629 23.0229C32.4383 24.5469 31.3947 25.7856 30.192 25.8291L30.1906 25.8291H28.9055V24.5633C28.9055 24.2892 28.7522 24.0697 28.5554 23.9348L28.5411 23.925L28.5257 23.9173L23.5987 21.4573L23.5905 21.4532L23.5821 21.4497C23.4004 21.375 23.1871 21.375 23.0054 21.4497L22.9974 21.453L22.9897 21.4568L18.0859 23.8806C18.0774 23.8834 18.0685 23.8869 18.0592 23.8911H18.0541L17.9937 23.9284C17.8033 24.046 17.6577 24.2734 17.6577 24.5387V25.8293H17.0381V25.8292L17.0313 25.8294C16.1863 25.8523 15.3335 25.5089 14.6786 24.8584C13.8846 24.0643 13.3989 22.8614 13.3757 21.6017L13.3757 21.6016ZM26.5956 24.5377L23.2702 26.1731L19.9445 24.5153L23.2689 22.8796L26.5956 24.5377ZM19.0759 29.5517V25.6614L22.6093 27.4028V31.2931L19.0759 29.5517ZM27.5119 29.5517L23.9786 31.2931V27.4271L27.5119 25.6767V29.5517Z" fill="#2176FF" stroke="#2176FF" stroke-width="0.5"></path><path d="M24.5356 30.4099V27.9317L26.9966 26.6926V29.1708L24.5356 30.4099Z" fill="#FFCA00"></path><path d="M22.0745 27.9317L19.6135 26.6926V27.1056V29.1708L22.0745 30.4099V27.9317Z" fill="#FFCA00"></path><path d="M25.3558 24.6274L23.305 23.3883L21.2542 24.6274L23.305 25.8665L25.3558 24.6274Z" fill="#FFCA00"></path></g><defs><clipPath id="clip0_422_443"><rect width="22.1491" height="21.4779" fill="white" transform="translate(11.4102 11.4102)"></rect></clipPath></defs></svg> 