<?xml version="1.0" encoding="UTF-8"?> <svg xmlns="http://www.w3.org/2000/svg" width="45" height="45" viewBox="0 0 45 45" fill="none"><circle cx="22.5" cy="22.5" r="22.5" fill="#EFF5FF"></circle><g clip-path="url(#clip0_422_490)"><path d="M31.0467 28.9649H30.9291V16.9218C30.9291 16.6853 30.741 16.4959 30.5058 16.4959H26.3198V14.1535C26.3198 13.917 26.1317 13.7276 25.8965 13.7276C25.6614 13.7276 25.4731 13.9168 25.4731 14.1535V14.4611C24.7207 15.0763 23.4272 15.4549 22.0163 15.4549C20.6053 15.4549 19.3118 15.0763 18.5594 14.4611V13.4673C19.4529 13.9879 20.6994 14.2717 22.0163 14.2717C23.7565 14.2717 25.3085 13.7749 26.2022 12.923C26.2963 12.852 26.3433 12.7338 26.3433 12.6155C26.3433 12.4971 26.2963 12.3789 26.2022 12.3079C25.2851 11.4562 23.7095 10.9594 21.9929 10.9594C20.2761 10.9594 18.7006 11.4562 17.807 12.308C17.7129 12.3791 17.6659 12.4973 17.6659 12.6156V12.6867V12.7577V16.496H17.5953H13.1273C12.8922 16.496 12.704 16.6852 12.704 16.9219V28.965H12.6099C11.9279 28.965 11.3871 29.5091 11.3871 30.1954V30.7868C11.3871 31.473 11.9279 32.0171 12.6099 32.0171H31.0704C31.7524 32.0171 32.2933 31.473 32.2933 30.7868V30.1954C32.2697 29.5329 31.7288 28.965 31.0468 28.965L31.0467 28.9649ZM18.5362 17.5131C19.4298 18.0337 20.6762 18.3175 21.9931 18.3175C23.31 18.3175 24.5564 18.01 25.45 17.5131V18.5069C24.6975 19.1221 23.404 19.5007 21.9931 19.5007C20.5822 19.5007 19.2887 19.1221 18.5362 18.5069V17.5131ZM21.9931 16.3065C23.31 16.3065 24.5564 15.9989 25.45 15.5021V16.4959C24.6975 17.1111 23.404 17.4897 21.9931 17.4897C20.5822 17.4897 19.2887 17.1111 18.5362 16.4959V15.5021C19.4298 16.0225 20.6762 16.3065 21.9931 16.3065ZM21.9931 11.8346C23.2395 11.8346 24.4152 12.1422 25.1679 12.639C24.3918 13.1359 23.2395 13.4434 21.9931 13.4434C20.7467 13.4434 19.5708 13.1123 18.8184 12.6155C19.5708 12.1185 20.7467 11.8346 21.9931 11.8346ZM13.5742 17.3473H17.6191H17.6897V18.696C17.6897 18.8143 17.7368 18.9325 17.8308 19.0036C18.7244 19.8553 20.3001 20.3523 22.0168 20.3523C23.7335 20.3523 25.309 19.8554 26.2027 19.0036C26.2968 18.9325 26.3438 18.8143 26.3438 18.696V17.3473H30.1064V28.9648H13.5742L13.5742 17.3473ZM31.3995 30.7864C31.3995 30.9757 31.2349 31.1413 31.0468 31.1413H12.61C12.4219 31.1413 12.2573 30.9757 12.2573 30.7864V30.195C12.2573 30.0058 12.4219 29.8401 12.61 29.8401H19.4297V29.8638C19.4297 30.1004 19.6178 30.2898 19.853 30.2898H23.7333C23.9684 30.2898 24.1566 30.1005 24.1566 29.8638V29.8401H31.0466C31.2347 29.8401 31.3993 30.0058 31.3993 30.195V30.7864H31.3995Z" fill="#297AFB" stroke="#297AFB" stroke-width="0.5"></path><path d="M28.5303 20.9057C28.4832 20.6692 28.2481 20.5271 28.0365 20.5509L25.9435 20.9531C25.7084 21.0004 25.5437 21.2369 25.5907 21.4499C25.6378 21.6629 25.8024 21.8048 26.0141 21.8048H26.0847L26.9548 21.6391L23.733 25.0227L22.0868 23.1535C21.9928 23.0351 21.8517 22.9878 21.7105 23.0115C21.5694 23.0353 21.4518 23.1062 21.3812 23.2245L19.4529 26.8209L17.4069 23.6032C17.3363 23.4848 17.1953 23.3902 17.0306 23.4139C16.8896 23.4139 16.7485 23.485 16.6779 23.6269L15.1963 26.0638C15.0787 26.2768 15.1257 26.5371 15.3374 26.6553C15.5491 26.7736 15.8078 26.7263 15.9252 26.5134L17.0305 24.6678L19.1237 27.8856C19.1943 28.004 19.3354 28.0748 19.4765 28.0748H19.5C19.6411 28.0748 19.7822 27.9802 19.8528 27.8383L21.8517 24.1946L23.3803 25.9455C23.4509 26.0401 23.5684 26.0874 23.686 26.0874C23.8036 26.0874 23.9211 26.0401 24.0153 25.9455L27.5428 22.2782L27.4722 23.0826C27.4486 23.3191 27.6368 23.5321 27.8719 23.5558C28.1071 23.5796 28.3187 23.3902 28.3423 23.1536L28.507 21.1189V21.0243C28.5303 21.0004 28.5303 20.9531 28.5303 20.9057Z" fill="#FFCA00"></path></g><defs><clipPath id="clip0_422_490"><rect width="23.5075" height="22.8358" fill="white" transform="translate(10.0746 10.7463)"></rect></clipPath></defs></svg> 