<?xml version="1.0" encoding="UTF-8"?> <svg xmlns="http://www.w3.org/2000/svg" width="45" height="45" viewBox="0 0 45 45" fill="none"><circle cx="22.4535" cy="22.4535" r="22.4535" fill="#EFF5FF"></circle><path d="M26.8321 13.7593C26.7651 13.1594 26.4792 12.6053 26.0293 12.2029C25.5794 11.8005 24.997 11.578 24.3934 11.578H20.576C19.9724 11.578 19.3899 11.8005 18.94 12.2029C18.4901 12.6053 18.2043 13.1594 18.1373 13.7593H16.2133C15.5625 13.7593 14.9383 14.0179 14.478 14.4781C14.0178 14.9383 13.7593 15.5625 13.7593 16.2133V30.9375C13.7593 31.5883 14.0178 32.2125 14.478 32.6727C14.9383 33.1329 15.5625 33.3915 16.2133 33.3915H28.7561C29.0783 33.3915 29.3975 33.328 29.6952 33.2047C29.9929 33.0814 30.2635 32.9006 30.4913 32.6727C30.7192 32.4449 30.9 32.1743 31.0233 31.8766C31.1466 31.5789 31.2101 31.2597 31.2101 30.9375V16.2133C31.2101 15.8911 31.1466 15.572 31.0233 15.2742C30.9 14.9765 30.7192 14.706 30.4913 14.4781C30.2635 14.2502 29.9929 14.0695 29.6952 13.9461C29.3975 13.8228 29.0783 13.7593 28.7561 13.7593H26.8321ZM26.8419 13.864L26.8474 14.032C26.8474 13.9753 26.8452 13.9197 26.8419 13.864ZM20.576 16.486H24.3934C25.2441 16.486 25.9934 16.053 26.434 15.3953H28.7561C28.973 15.3953 29.1811 15.4815 29.3345 15.6349C29.4879 15.7883 29.5741 15.9964 29.5741 16.2133V30.9375C29.5741 31.1544 29.4879 31.3625 29.3345 31.5159C29.1811 31.6693 28.973 31.7555 28.7561 31.7555H16.2133C15.9963 31.7555 15.7883 31.6693 15.6349 31.5159C15.4815 31.3625 15.3953 31.1544 15.3953 30.9375V16.2133C15.3953 15.9964 15.4815 15.7883 15.6349 15.6349C15.7883 15.4815 15.9963 15.3953 16.2133 15.3953H18.5353C18.976 16.053 19.7253 16.486 20.576 16.486ZM20.576 13.214H24.3934C24.6103 13.214 24.8184 13.3002 24.9718 13.4536C25.1252 13.607 25.2114 13.815 25.2114 14.032C25.2114 14.2489 25.1252 14.457 24.9718 14.6104C24.8184 14.7638 24.6103 14.85 24.3934 14.85H20.576C20.3591 14.85 20.151 14.7638 19.9976 14.6104C19.8442 14.457 19.758 14.2489 19.758 14.032C19.758 13.815 19.8442 13.607 19.9976 13.4536C20.151 13.3002 20.3591 13.214 20.576 13.214ZM27.3927 24.9388C27.3927 24.7218 27.3065 24.5137 27.1531 24.3603C26.9997 24.2069 26.7917 24.1207 26.5747 24.1207C26.3578 24.1207 26.1497 24.2069 25.9963 24.3603C25.8429 24.5137 25.7567 24.7218 25.7567 24.9388V28.2108C25.7567 28.4277 25.8429 28.6358 25.9963 28.7892C26.1497 28.9426 26.3578 29.0288 26.5747 29.0288C26.7917 29.0288 26.9997 28.9426 27.1531 28.7892C27.3065 28.6358 27.3927 28.4277 27.3927 28.2108V24.9388ZM22.4847 21.3941C22.7016 21.3941 22.9097 21.4802 23.0631 21.6336C23.2165 21.7871 23.3027 21.9951 23.3027 22.2121V28.2108C23.3027 28.4277 23.2165 28.6358 23.0631 28.7892C22.9097 28.9426 22.7016 29.0288 22.4847 29.0288C22.2677 29.0288 22.0597 28.9426 21.9063 28.7892C21.7529 28.6358 21.6667 28.4277 21.6667 28.2108V22.2121C21.6667 21.9951 21.7529 21.7871 21.9063 21.6336C22.0597 21.4802 22.2677 21.3941 22.4847 21.3941ZM19.2127 20.0307C19.2127 19.8138 19.1265 19.6057 18.9731 19.4523C18.8197 19.2989 18.6116 19.2127 18.3947 19.2127C18.1777 19.2127 17.9696 19.2989 17.8162 19.4523C17.6628 19.6057 17.5766 19.8138 17.5766 20.0307V28.2108C17.5766 28.4277 17.6628 28.6358 17.8162 28.7892C17.9696 28.9426 18.1777 29.0288 18.3947 29.0288C18.6116 29.0288 18.8197 28.9426 18.9731 28.7892C19.1265 28.6358 19.2127 28.4277 19.2127 28.2108V20.0307Z" fill="#2176FF"></path><line x1="18.8258" y1="20.1682" x2="18.8258" y2="28.1572" stroke="#FFCA00" stroke-width="2.75" stroke-linecap="round"></line><line x1="22.8529" y1="22.1818" x2="22.8529" y2="28.1572" stroke="#FFCA00" stroke-width="2.75" stroke-linecap="round"></line><line x1="26.93" y1="24.9165" x2="26.93" y2="28.1072" stroke="#FFCA00" stroke-width="2.85" stroke-linecap="round"></line></svg> 