<?xml version="1.0" encoding="UTF-8"?> <svg xmlns="http://www.w3.org/2000/svg" width="61" height="60" viewBox="0 0 61 60" fill="none"><g clip-path="url(#clip0_11760_1804)"><path d="M29.8626 0.0170898C14.6081 0.0170898 15.5605 6.63238 15.5605 6.63238L15.5775 13.486H30.1347V15.5437H9.79559C9.79559 15.5437 0.0341797 14.4366 0.0341797 29.8284C0.0341797 45.2206 8.55418 44.6747 8.55418 44.6747H13.6389V37.5321C13.6389 37.5321 13.3648 29.0121 22.0229 29.0121H36.461C36.461 29.0121 44.5728 29.1432 44.5728 21.1724V7.99309C44.5728 7.99309 45.8048 0.0170898 29.8626 0.0170898ZM21.8358 4.62603C22.1798 4.62572 22.5205 4.69325 22.8384 4.82475C23.1562 4.95625 23.4451 5.14913 23.6883 5.39238C23.9315 5.63562 24.1244 5.92444 24.2559 6.24231C24.3874 6.56018 24.455 6.90086 24.4546 7.24485C24.455 7.58885 24.3874 7.92953 24.2559 8.2474C24.1244 8.56527 23.9315 8.85409 23.6883 9.09733C23.4451 9.34058 23.1562 9.53346 22.8384 9.66496C22.5205 9.79646 22.1798 9.86399 21.8358 9.86368C21.4918 9.86399 21.1511 9.79646 20.8333 9.66496C20.5154 9.53346 20.2266 9.34058 19.9833 9.09733C19.7401 8.85409 19.5472 8.56527 19.4157 8.2474C19.2842 7.92953 19.2167 7.58885 19.217 7.24485C19.2167 6.90086 19.2842 6.56018 19.4157 6.24231C19.5472 5.92444 19.7401 5.63562 19.9833 5.39238C20.2266 5.14913 20.5154 4.95625 20.8333 4.82475C21.1511 4.69325 21.4918 4.62572 21.8358 4.62603V4.62603Z" fill="url(#paint0_linear_11760_1804)"></path><path d="M30.2959 59.7943C45.5505 59.7943 44.598 53.179 44.598 53.179L44.5811 46.3256H30.0237V44.268H50.3627C50.3627 44.268 60.1241 45.375 60.1241 29.9828C60.1241 14.5908 51.6041 15.1367 51.6041 15.1367H46.5194V22.279C46.5194 22.279 46.7935 30.799 38.1354 30.799H23.6973C23.6973 30.799 15.5855 30.668 15.5855 38.639V51.8186C15.5855 51.8186 14.3538 59.7943 30.2957 59.7943H30.2959ZM38.3227 55.1858C37.9787 55.1862 37.638 55.1186 37.3202 54.9871C37.0023 54.8556 36.7135 54.6627 36.4702 54.4195C36.227 54.1763 36.0341 53.8874 35.9026 53.5696C35.7711 53.2517 35.7036 52.911 35.7039 52.567C35.7036 52.223 35.7711 51.8823 35.9025 51.5644C36.034 51.2465 36.2269 50.9577 36.4702 50.7144C36.7134 50.4711 37.0022 50.2782 37.3201 50.1467C37.638 50.0152 37.9787 49.9477 38.3227 49.948C38.6667 49.9477 39.0074 50.0152 39.3253 50.1467C39.6431 50.2782 39.932 50.4711 40.1752 50.7143C40.4184 50.9576 40.6113 51.2464 40.7428 51.5642C40.8743 51.8821 40.9419 52.2228 40.9415 52.5668C40.9419 52.9108 40.8743 53.2515 40.7428 53.5693C40.6113 53.8872 40.4184 54.176 40.1752 54.4193C39.932 54.6625 39.6431 54.8554 39.3253 54.9869C39.0074 55.1184 38.6667 55.1859 38.3227 55.1856V55.1858Z" fill="url(#paint1_linear_11760_1804)"></path></g><defs><linearGradient id="paint0_linear_11760_1804" x1="5.8088" y1="5.39371" x2="35.5875" y2="34.8754" gradientUnits="userSpaceOnUse"><stop stop-color="#387EB8"></stop><stop offset="1" stop-color="#366994"></stop></linearGradient><linearGradient id="paint1_linear_11760_1804" x1="24.087" y1="24.3249" x2="56.066" y2="54.5556" gradientUnits="userSpaceOnUse"><stop stop-color="#FFE052"></stop><stop offset="1" stop-color="#FFC331"></stop></linearGradient><clipPath id="clip0_11760_1804"><rect width="60.241" height="60" fill="white"></rect></clipPath></defs></svg> 